<svg xmlns="http://www.w3.org/2000/svg" viewBox="0 0 169.55 91.16"><defs><style>.cls-1{fill:#222d2f;}</style></defs><title>GDIU_LogoBlack</title><g id="Layer_2" data-name="Layer 2"><g id="Layer_1-2" data-name="Layer 1"><polygon class="cls-1" points="37.99 18.45 19.98 18.07 19.88 28.96 25.28 28.86 25.28 33.17 12.95 33.17 12.95 12.23 25.66 12.23 25.47 16.68 38.47 16.68 38.28 0.29 0 0.29 0 45.83 37.99 45.83 37.99 18.45"/><path class="cls-1" d="M74.05.14H48.82l-8.7,45.59H53.7l1.62-11.09L67.6,34.5,69,45.73H82.8ZM57.33,22.84l1.82-10.66h4.68L65.64,22.7Z"/><polygon class="cls-1" points="97.64 23.75 101.94 42.25 112.94 42.25 117.24 23.75 117.67 45.73 130.52 45.73 128.9 0.14 113.03 0.14 107.44 19.74 101.85 0.14 86.03 0.14 84.41 45.73 97.26 45.73 97.64 23.75"/><polygon class="cls-1" points="169.41 33.45 145.32 33.93 145.32 28.43 164.01 28.86 163.91 17.16 145.32 17.54 145.32 11.9 168.54 12.28 168.54 0 132.32 0.38 132.32 45.4 169.55 45.73 169.41 33.45"/><path class="cls-1" d="M.07,49.25V91.11H30.42l5.84-13.66V59.53L29.63,49.25Zm24.56,26L22.12,80H12V59.75H22l2.59,3.73Z"/><polygon class="cls-1" points="50.22 80.26 50.22 75.21 67.4 75.61 67.31 64.84 50.22 65.19 50.22 60.01 71.57 60.36 71.57 49.07 38.27 49.42 38.27 90.81 72.5 91.11 72.36 79.82 50.22 80.26"/><polygon class="cls-1" points="94.14 78.59 87.46 49.25 74.02 49.25 85.66 91.16 102.62 91.16 114.26 49.25 100.81 49.25 94.14 78.59"/><path class="cls-1" d="M113.23,64.18l5.2-15.11L139,50.27V68l-5,1.44-5.53-.93V67.49l-4.93.69-3.09-4.9,2.36-7.93,5.66.91v-.6l4.51.1L133,65l1,.24V54.81L122,54l-3,9.7,4.37,6.59,8.69-.44,1.61,4.73L120,75.11Zm12.34-1.82.58,1,2.27-.2V61l-2.47-.41Z"/><polygon class="cls-1" points="141.52 75.01 149.7 75.01 149.78 50.15 141.4 50.15 141.52 75.01"/><polygon class="cls-1" points="161.02 67.82 159.28 67.82 159.43 50.16 150.95 50.16 151.1 75.06 169.25 75.06 169.42 50.16 160.87 50.16 161.02 67.82"/></g></g></svg>