<svg xmlns="http://www.w3.org/2000/svg" viewBox="0 0 275.31 171.44"><defs><style>.cls-1{fill:#222d2f;}.cls-2{fill:#eaeaea;}.cls-3{fill:#60bb92;}.cls-4{fill:#5978bb;}.cls-5{fill:#fec366;}.cls-6{fill:#dd5445;}</style></defs><title>GDIU_Logo</title><g id="Layer_2" data-name="Layer 2"><g id="Layer_1-2" data-name="Layer 1"><path class="cls-1" d="M266.31,55.88A9.43,9.43,0,0,0,260.11,47a9.42,9.42,0,0,0,5.08-8.36V9.42A9.42,9.42,0,0,0,255.76,0h0L9.42.46A9.42,9.42,0,0,0,0,9.89L.09,148.17a9.42,9.42,0,0,0,9.42,9.42l153.14.06a9.42,9.42,0,0,0,9.08-6.9L176.1,135a9.37,9.37,0,0,0,3.21.43l22.26-.88a9.4,9.4,0,0,0,3.5.68l51.84.07h0a9.43,9.43,0,0,0,9.42-9.43Z"/><path class="cls-1" d="M2.85,3.36A9.42,9.42,0,0,0,.09,10L.18,148.31a9.42,9.42,0,0,0,9.42,9.42l153.14.06a9.42,9.42,0,0,0,9.08-6.9l4.36-15.71a9.37,9.37,0,0,0,3.21.43l22.26-.87a9.49,9.49,0,0,0,3.51.67l51.84.07h0a9.43,9.43,0,0,0,9.42-9.43l0-70a9.43,9.43,0,0,0-6.21-8.85,9.42,9.42,0,0,0,5.08-8.36V9.56A9.42,9.42,0,0,0,255.85.14h0L9.51.6A9.42,9.42,0,0,0,2.85,3.36Z"/><path class="cls-1" d="M2.94,3.5A9.42,9.42,0,0,0,.18,10.17L.27,148.45a9.42,9.42,0,0,0,9.42,9.42l153.14.06a9.42,9.42,0,0,0,9.08-6.9l4.36-15.71a9.37,9.37,0,0,0,3.21.43l22.26-.86a9.58,9.58,0,0,0,3.51.67l51.84.07h0a9.43,9.43,0,0,0,9.42-9.43l0-70a9.43,9.43,0,0,0-6.21-8.85,9.42,9.42,0,0,0,5.08-8.36V9.7A9.42,9.42,0,0,0,255.94.27h0L9.6.73A9.42,9.42,0,0,0,2.94,3.5Z"/><path class="cls-1" d="M3,3.63A9.42,9.42,0,0,0,.27,10.3L.36,148.58A9.42,9.42,0,0,0,9.78,158l153.14.06a9.42,9.42,0,0,0,9.08-6.9l4.36-15.71a9.37,9.37,0,0,0,3.21.43l22.26-.85a9.68,9.68,0,0,0,3.51.66l51.84.07h0a9.43,9.43,0,0,0,9.42-9.43l0-70a9.43,9.43,0,0,0-6.21-8.85,9.42,9.42,0,0,0,5.08-8.36V9.83A9.42,9.42,0,0,0,256,.41h0L9.69.87A9.42,9.42,0,0,0,3,3.63Z"/><path class="cls-1" d="M3.11,3.77A9.42,9.42,0,0,0,.35,10.44L.45,148.72a9.42,9.42,0,0,0,9.42,9.42L163,158.2a9.42,9.42,0,0,0,9.08-6.9l4.36-15.71a9.37,9.37,0,0,0,3.21.43l22.26-.84a9.78,9.78,0,0,0,3.51.65l51.84.06h0a9.43,9.43,0,0,0,9.42-9.43l0-70a9.43,9.43,0,0,0-6.21-8.85,9.42,9.42,0,0,0,5.08-8.36V10A9.42,9.42,0,0,0,256.12.55h0L9.78,1A9.42,9.42,0,0,0,3.11,3.77Z"/><path class="cls-1" d="M3.2,3.91A9.42,9.42,0,0,0,.44,10.58L.54,148.86A9.42,9.42,0,0,0,10,158.27l153.14.06a9.42,9.42,0,0,0,9.08-6.9l4.36-15.71a9.37,9.37,0,0,0,3.21.43l22.26-.83a9.88,9.88,0,0,0,3.51.64l51.84.06h0a9.43,9.43,0,0,0,9.42-9.43l0-70a9.43,9.43,0,0,0-6.21-8.85,9.42,9.42,0,0,0,5.08-8.36V10.11A9.42,9.42,0,0,0,256.21.68h0L9.87,1.14A9.42,9.42,0,0,0,3.2,3.91Z"/><path class="cls-1" d="M3.29,4A9.42,9.42,0,0,0,.53,10.71L.63,149a9.42,9.42,0,0,0,9.42,9.42l153.14.06a9.42,9.42,0,0,0,9.08-6.9l4.36-15.71a9.37,9.37,0,0,0,3.21.43l22.26-.83a10,10,0,0,0,3.51.64l51.84.06h0a9.43,9.43,0,0,0,9.42-9.43l0-70a9.43,9.43,0,0,0-6.21-8.85,9.42,9.42,0,0,0,5.08-8.36V10.24A9.42,9.42,0,0,0,256.3.82h0L10,1.28A9.42,9.42,0,0,0,3.29,4Z"/><path class="cls-1" d="M3.38,4.18A9.42,9.42,0,0,0,.62,10.85L.71,149.13a9.42,9.42,0,0,0,9.42,9.42l153.14.06a9.42,9.42,0,0,0,9.08-6.9L176.72,136a9.37,9.37,0,0,0,3.21.43l22.26-.82a10.08,10.08,0,0,0,3.51.63l51.84.06h0a9.43,9.43,0,0,0,9.42-9.43l0-70A9.43,9.43,0,0,0,260.73,48a9.42,9.42,0,0,0,5.08-8.36V10.38A9.42,9.42,0,0,0,256.39,1h0L10,1.42A9.42,9.42,0,0,0,3.38,4.18Z"/><path class="cls-1" d="M3.47,4.32A9.42,9.42,0,0,0,.71,11L.8,149.27a9.42,9.42,0,0,0,9.42,9.42l153.14.06a9.42,9.42,0,0,0,9.08-6.9l4.36-15.71a9.37,9.37,0,0,0,3.21.43l22.26-.81a10.19,10.19,0,0,0,3.51.62l51.84.06h0a9.43,9.43,0,0,0,9.42-9.43l0-70a9.43,9.43,0,0,0-6.21-8.85,9.42,9.42,0,0,0,5.08-8.36V10.52a9.42,9.42,0,0,0-9.42-9.42h0L10.13,1.55A9.42,9.42,0,0,0,3.47,4.32Z"/><path class="cls-1" d="M3.56,4.45A9.42,9.42,0,0,0,.8,11.12L.89,149.4a9.42,9.42,0,0,0,9.42,9.42l153.14.06a9.42,9.42,0,0,0,9.08-6.9l4.36-15.71a9.37,9.37,0,0,0,3.21.43l22.26-.8a10.3,10.3,0,0,0,3.51.62l51.84.06h0a9.43,9.43,0,0,0,9.42-9.43l0-70a9.43,9.43,0,0,0-6.21-8.85A9.42,9.42,0,0,0,266,39.89V10.65a9.42,9.42,0,0,0-9.42-9.42h0L10.22,1.69A9.42,9.42,0,0,0,3.56,4.45Z"/><path class="cls-1" d="M3.65,4.59A9.42,9.42,0,0,0,.89,11.26L1,149.54A9.42,9.42,0,0,0,10.4,159l153.14.06a9.42,9.42,0,0,0,9.08-6.9L177,136.41a9.37,9.37,0,0,0,3.21.43l22.26-.79a10.41,10.41,0,0,0,3.51.61l51.84.06h0a9.43,9.43,0,0,0,9.42-9.43l0-70A9.43,9.43,0,0,0,261,48.39,9.42,9.42,0,0,0,266.08,40V10.79a9.42,9.42,0,0,0-9.42-9.42h0L10.31,1.83A9.42,9.42,0,0,0,3.65,4.59Z"/><path class="cls-1" d="M3.73,4.73A9.42,9.42,0,0,0,1,11.39l.09,138.28a9.42,9.42,0,0,0,9.42,9.42l153.14.06a9.42,9.42,0,0,0,9.08-6.9l4.36-15.71a9.37,9.37,0,0,0,3.21.43l22.26-.78a10.53,10.53,0,0,0,3.51.6l51.84.05h0a9.43,9.43,0,0,0,9.42-9.43l0-70a9.43,9.43,0,0,0-6.21-8.85,9.42,9.42,0,0,0,5.08-8.36V10.93a9.42,9.42,0,0,0-9.42-9.42h0L10.4,2A9.42,9.42,0,0,0,3.73,4.73Z"/><path class="cls-1" d="M3.82,4.86a9.42,9.42,0,0,0-2.76,6.67l.09,138.28a9.42,9.42,0,0,0,9.42,9.42l153.14.06a9.42,9.42,0,0,0,9.08-6.9l4.36-15.71a9.37,9.37,0,0,0,3.21.43l22.26-.78a10.64,10.64,0,0,0,3.51.6L258,137h0a9.43,9.43,0,0,0,9.42-9.43l0-70a9.43,9.43,0,0,0-6.21-8.85,9.42,9.42,0,0,0,5.08-8.36V11.06a9.42,9.42,0,0,0-9.42-9.42h0L10.49,2.1A9.42,9.42,0,0,0,3.82,4.86Z"/><path class="cls-1" d="M3.91,5a9.42,9.42,0,0,0-2.76,6.67l.09,138.28a9.42,9.42,0,0,0,9.42,9.42l153.14.06a9.42,9.42,0,0,0,9.08-6.9l4.36-15.71a9.37,9.37,0,0,0,3.21.43l22.26-.77a10.76,10.76,0,0,0,3.51.59l51.84.05h0a9.43,9.43,0,0,0,9.42-9.43l0-70a9.43,9.43,0,0,0-6.21-8.85,9.42,9.42,0,0,0,5.08-8.36V11.2a9.42,9.42,0,0,0-9.42-9.42h0L10.58,2.24A9.42,9.42,0,0,0,3.91,5Z"/><path class="cls-1" d="M4,5.14A9.42,9.42,0,0,0,1.24,11.8l.09,138.28a9.42,9.42,0,0,0,9.42,9.42l153.14.06a9.42,9.42,0,0,0,9.08-6.9L177.34,137a9.37,9.37,0,0,0,3.21.43l22.26-.76a10.88,10.88,0,0,0,3.51.58l51.83,0h0a9.43,9.43,0,0,0,9.42-9.43l0-70a9.43,9.43,0,0,0-6.21-8.85,9.42,9.42,0,0,0,5.08-8.36V11.34A9.42,9.42,0,0,0,257,1.91h0L10.67,2.37A9.42,9.42,0,0,0,4,5.14Z"/><path class="cls-1" d="M4.09,5.27a9.42,9.42,0,0,0-2.76,6.67l.09,138.28a9.42,9.42,0,0,0,9.42,9.42L164,159.7a9.42,9.42,0,0,0,9.08-6.9l4.36-15.71a9.37,9.37,0,0,0,3.21.43l22.26-.75a11,11,0,0,0,3.51.58l51.83,0h0a9.43,9.43,0,0,0,9.42-9.43l0-70a9.43,9.43,0,0,0-6.21-8.85,9.42,9.42,0,0,0,5.08-8.36V11.47A9.42,9.42,0,0,0,257.1,2h0L10.76,2.51A9.42,9.42,0,0,0,4.09,5.27Z"/><path class="cls-1" d="M4.18,5.41a9.42,9.42,0,0,0-2.76,6.67l.09,138.28a9.42,9.42,0,0,0,9.42,9.42l153.14.06a9.42,9.42,0,0,0,9.08-6.9l4.36-15.71a9.37,9.37,0,0,0,3.21.43l22.26-.74a11.14,11.14,0,0,0,3.52.57l51.83,0h0a9.43,9.43,0,0,0,9.42-9.43l0-70a9.43,9.43,0,0,0-6.21-8.85,9.42,9.42,0,0,0,5.08-8.36V11.61a9.42,9.42,0,0,0-9.42-9.42h0L10.84,2.65A9.42,9.42,0,0,0,4.18,5.41Z"/><path class="cls-1" d="M4.27,5.55a9.42,9.42,0,0,0-2.76,6.67L1.6,150.49A9.42,9.42,0,0,0,11,159.91l153.14.06a9.42,9.42,0,0,0,9.08-6.9l4.36-15.71a9.37,9.37,0,0,0,3.21.43l22.26-.73a11.27,11.27,0,0,0,3.52.56l51.83,0h0a9.43,9.43,0,0,0,9.42-9.43l0-70a9.43,9.43,0,0,0-6.21-8.85A9.42,9.42,0,0,0,266.7,41V11.75a9.42,9.42,0,0,0-9.42-9.42h0L10.93,2.78A9.42,9.42,0,0,0,4.27,5.55Z"/><path class="cls-1" d="M4.35,5.68A9.42,9.42,0,0,0,1.6,12.35l.09,138.28A9.42,9.42,0,0,0,11.11,160l153.14.06a9.42,9.42,0,0,0,9.08-6.9l4.36-15.71a9.37,9.37,0,0,0,3.21.43l22.26-.73a11.41,11.41,0,0,0,3.52.56l51.83,0h0a9.43,9.43,0,0,0,9.42-9.43l0-70a9.43,9.43,0,0,0-6.21-8.85,9.42,9.42,0,0,0,5.08-8.36V11.88a9.42,9.42,0,0,0-9.42-9.42h0L11,2.92A9.42,9.42,0,0,0,4.35,5.68Z"/><path class="cls-1" d="M4.44,5.82a9.42,9.42,0,0,0-2.76,6.67l.09,138.28a9.42,9.42,0,0,0,9.42,9.42l153.14.06a9.42,9.42,0,0,0,9.08-6.9l4.36-15.71a9.37,9.37,0,0,0,3.21.43l22.26-.72a11.55,11.55,0,0,0,3.52.55l51.83,0h0a9.43,9.43,0,0,0,9.42-9.43l0-70a9.43,9.43,0,0,0-6.21-8.85,9.42,9.42,0,0,0,5.08-8.36V12a9.42,9.42,0,0,0-9.42-9.42h0L11.11,3.06A9.42,9.42,0,0,0,4.44,5.82Z"/><path class="cls-1" d="M4.53,6a9.42,9.42,0,0,0-2.76,6.67L1.87,150.9a9.42,9.42,0,0,0,9.42,9.42l153.14.06a9.42,9.42,0,0,0,9.08-6.9l4.36-15.71a9.37,9.37,0,0,0,3.21.43l22.26-.71a11.69,11.69,0,0,0,3.52.54l51.83,0h0a9.43,9.43,0,0,0,9.42-9.43l0-70a9.43,9.43,0,0,0-6.21-8.85A9.42,9.42,0,0,0,267,41.39V12.15a9.42,9.42,0,0,0-9.42-9.42h0L11.2,3.19A9.42,9.42,0,0,0,4.53,6Z"/><path class="cls-1" d="M4.62,6.09a9.42,9.42,0,0,0-2.76,6.67L2,151a9.42,9.42,0,0,0,9.42,9.42l153.14.06a9.42,9.42,0,0,0,9.08-6.9L178,137.91a9.37,9.37,0,0,0,3.21.43l22.26-.7a11.83,11.83,0,0,0,3.52.54l51.83,0h0a9.43,9.43,0,0,0,9.42-9.43l0-70A9.43,9.43,0,0,0,262,49.89a9.42,9.42,0,0,0,5.08-8.36V12.29a9.42,9.42,0,0,0-9.42-9.42h0L11.29,3.33A9.42,9.42,0,0,0,4.62,6.09Z"/><path class="cls-1" d="M4.71,6.23A9.42,9.42,0,0,0,2,12.9L2,151.18a9.42,9.42,0,0,0,9.42,9.42l153.14.06a9.42,9.42,0,0,0,9.08-6.9L178.05,138a9.37,9.37,0,0,0,3.21.43l22.26-.69a12,12,0,0,0,3.52.53l51.83,0h0a9.43,9.43,0,0,0,9.42-9.43l0-70A9.43,9.43,0,0,0,262.06,50a9.42,9.42,0,0,0,5.08-8.36V12.43A9.42,9.42,0,0,0,257.72,3h0L11.38,3.47A9.42,9.42,0,0,0,4.71,6.23Z"/><path class="cls-1" d="M4.8,6.36A9.42,9.42,0,0,0,2,13l.09,138.28a9.42,9.42,0,0,0,9.42,9.42l153.14.06a9.42,9.42,0,0,0,9.08-6.9l4.36-15.71a9.37,9.37,0,0,0,3.21.43l22.26-.68a12.14,12.14,0,0,0,3.52.52l51.83,0h0a9.43,9.43,0,0,0,9.42-9.43l0-70a9.43,9.43,0,0,0-6.21-8.85,9.42,9.42,0,0,0,5.08-8.36V12.56a9.42,9.42,0,0,0-9.42-9.42h0L11.46,3.6A9.42,9.42,0,0,0,4.8,6.36Z"/><path class="cls-1" d="M4.89,6.5a9.42,9.42,0,0,0-2.76,6.67l.09,138.28a9.42,9.42,0,0,0,9.42,9.42l153.14.06a9.42,9.42,0,0,0,9.08-6.9l4.36-15.71a9.37,9.37,0,0,0,3.21.43l22.26-.68a12.3,12.3,0,0,0,3.52.52l51.83,0h0a9.43,9.43,0,0,0,9.42-9.43l0-70a9.43,9.43,0,0,0-6.21-8.85,9.42,9.42,0,0,0,5.08-8.36V12.7a9.42,9.42,0,0,0-9.42-9.42h0L11.55,3.74A9.42,9.42,0,0,0,4.89,6.5Z"/><path class="cls-1" d="M5,6.64a9.42,9.42,0,0,0-2.76,6.67l.09,138.28A9.42,9.42,0,0,0,11.74,161l153.14.06a9.42,9.42,0,0,0,9.08-6.9l4.36-15.71a9.37,9.37,0,0,0,3.21.43l22.26-.67a12.46,12.46,0,0,0,3.52.51l51.83,0h0a9.43,9.43,0,0,0,9.42-9.43l0-70a9.43,9.43,0,0,0-6.21-8.85,9.42,9.42,0,0,0,5.08-8.36V12.84A9.42,9.42,0,0,0,258,3.41h0L11.64,3.87A9.42,9.42,0,0,0,5,6.64Z"/><path class="cls-1" d="M5.06,6.77a9.42,9.42,0,0,0-2.76,6.67L2.4,151.72a9.42,9.42,0,0,0,9.42,9.42L165,161.2a9.42,9.42,0,0,0,9.08-6.9l4.36-15.71a9.37,9.37,0,0,0,3.21.43l22.26-.66a12.63,12.63,0,0,0,3.52.5l51.83,0h0a9.43,9.43,0,0,0,9.42-9.43l0-70a9.43,9.43,0,0,0-6.21-8.85,9.42,9.42,0,0,0,5.08-8.36V13a9.42,9.42,0,0,0-9.42-9.42h0L11.73,4A9.42,9.42,0,0,0,5.06,6.77Z"/><path class="cls-1" d="M5.15,6.91a9.42,9.42,0,0,0-2.76,6.67l.09,138.28a9.42,9.42,0,0,0,9.42,9.42l153.14.06a9.42,9.42,0,0,0,9.08-6.9l4.36-15.71a9.37,9.37,0,0,0,3.21.43l22.26-.65a12.8,12.8,0,0,0,3.52.5l51.83,0h0a9.43,9.43,0,0,0,9.42-9.43l0-70a9.43,9.43,0,0,0-6.21-8.85,9.42,9.42,0,0,0,5.08-8.36V13.11a9.42,9.42,0,0,0-9.42-9.42h0L11.82,4.15A9.42,9.42,0,0,0,5.15,6.91Z"/><path class="cls-1" d="M5.24,7a9.42,9.42,0,0,0-2.76,6.67L2.58,152A9.42,9.42,0,0,0,12,161.41l153.14.06a9.42,9.42,0,0,0,9.08-6.9l4.36-15.71a9.37,9.37,0,0,0,3.21.43l22.26-.64a13,13,0,0,0,3.52.49l51.83,0h0a9.43,9.43,0,0,0,9.42-9.43l0-70a9.43,9.43,0,0,0-6.21-8.85,9.42,9.42,0,0,0,5.08-8.36V13.25a9.42,9.42,0,0,0-9.42-9.42h0L11.91,4.28A9.42,9.42,0,0,0,5.24,7Z"/><path class="cls-1" d="M5.33,7.18a9.42,9.42,0,0,0-2.76,6.67l.09,138.28a9.42,9.42,0,0,0,9.42,9.42l153.14.06a9.42,9.42,0,0,0,9.08-6.9L178.67,139a9.37,9.37,0,0,0,3.21.43l22.26-.63a13.16,13.16,0,0,0,3.52.48l51.82,0h0a9.43,9.43,0,0,0,9.42-9.43l0-70A9.43,9.43,0,0,0,262.68,51a9.42,9.42,0,0,0,5.08-8.36V13.38A9.42,9.42,0,0,0,258.34,4h0L12,4.42A9.42,9.42,0,0,0,5.33,7.18Z"/><path class="cls-1" d="M5.42,7.32A9.42,9.42,0,0,0,2.66,14l.09,138.28a9.42,9.42,0,0,0,9.42,9.42l153.14.06a9.42,9.42,0,0,0,9.08-6.9l4.36-15.71a9.37,9.37,0,0,0,3.21.43l22.26-.63a13.34,13.34,0,0,0,3.52.48l51.82,0h0A9.43,9.43,0,0,0,269,130l0-70a9.43,9.43,0,0,0-6.21-8.85,9.42,9.42,0,0,0,5.08-8.36V13.52a9.42,9.42,0,0,0-9.42-9.42h0L12.09,4.56A9.42,9.42,0,0,0,5.42,7.32Z"/><path class="cls-1" d="M5.51,7.46a9.42,9.42,0,0,0-2.76,6.67l.09,138.28a9.42,9.42,0,0,0,9.42,9.42l153.14.06a9.42,9.42,0,0,0,9.08-6.9l4.36-15.71a9.37,9.37,0,0,0,3.21.43l22.26-.62a13.54,13.54,0,0,0,3.52.47l51.82,0h0a9.43,9.43,0,0,0,9.42-9.43l0-70a9.43,9.43,0,0,0-6.21-8.85,9.42,9.42,0,0,0,5.08-8.36V13.66a9.42,9.42,0,0,0-9.42-9.42h0L12.17,4.69A9.42,9.42,0,0,0,5.51,7.46Z"/><path class="cls-1" d="M5.6,7.59a9.42,9.42,0,0,0-2.76,6.67l.09,138.28A9.42,9.42,0,0,0,12.36,162L165.5,162a9.42,9.42,0,0,0,9.08-6.9l4.36-15.71a9.37,9.37,0,0,0,3.21.43l22.26-.61a13.73,13.73,0,0,0,3.53.46l51.82,0h0a9.43,9.43,0,0,0,9.42-9.43l0-70a9.43,9.43,0,0,0-6.21-8.85A9.42,9.42,0,0,0,268,43V13.79a9.42,9.42,0,0,0-9.42-9.42h0L12.26,4.83A9.42,9.42,0,0,0,5.6,7.59Z"/><path class="cls-1" d="M5.69,7.73A9.42,9.42,0,0,0,2.93,14.4L3,152.68a9.42,9.42,0,0,0,9.42,9.42l153.14.06a9.42,9.42,0,0,0,9.08-6.9L179,139.55a9.37,9.37,0,0,0,3.21.43l22.26-.6a13.94,13.94,0,0,0,3.53.45l51.82,0h0a9.43,9.43,0,0,0,9.42-9.43l0-70A9.43,9.43,0,0,0,263,51.53a9.42,9.42,0,0,0,5.08-8.36V13.93a9.42,9.42,0,0,0-9.42-9.42h0L12.35,5A9.42,9.42,0,0,0,5.69,7.73Z"/><path class="cls-1" d="M5.77,7.87A9.42,9.42,0,0,0,3,14.53l.09,138.28a9.42,9.42,0,0,0,9.42,9.42l153.14.06a9.42,9.42,0,0,0,9.08-6.9l4.36-15.71a9.37,9.37,0,0,0,3.21.43l22.26-.59a14.15,14.15,0,0,0,3.53.45l51.82,0h0a9.43,9.43,0,0,0,9.42-9.43l0-70a9.43,9.43,0,0,0-6.21-8.85,9.42,9.42,0,0,0,5.08-8.36V14.07a9.42,9.42,0,0,0-9.42-9.42h0L12.44,5.1A9.42,9.42,0,0,0,5.77,7.87Z"/><path class="cls-1" d="M5.86,8A9.42,9.42,0,0,0,3.1,14.67L3.2,153a9.42,9.42,0,0,0,9.42,9.42l153.14.06a9.42,9.42,0,0,0,9.08-6.9l4.36-15.71a9.37,9.37,0,0,0,3.21.43l22.26-.58a14.37,14.37,0,0,0,3.53.44l51.82,0h0a9.43,9.43,0,0,0,9.42-9.43l0-70a9.43,9.43,0,0,0-6.21-8.85,9.42,9.42,0,0,0,5.08-8.36V14.2a9.42,9.42,0,0,0-9.42-9.42h0L12.53,5.24A9.42,9.42,0,0,0,5.86,8Z"/><path class="cls-1" d="M6,8.14a9.42,9.42,0,0,0-2.76,6.67l.09,138.28a9.42,9.42,0,0,0,9.42,9.42l153.14.06a9.42,9.42,0,0,0,9.08-6.9L179.3,140a9.37,9.37,0,0,0,3.21.43l22.26-.58a14.59,14.59,0,0,0,3.53.43l51.82,0h0a9.43,9.43,0,0,0,9.42-9.43l0-70a9.43,9.43,0,0,0-6.21-8.85,9.42,9.42,0,0,0,5.08-8.36V14.34A9.42,9.42,0,0,0,259,4.91h0L12.62,5.38A9.42,9.42,0,0,0,6,8.14Z"/><path class="cls-1" d="M6,8.28a9.42,9.42,0,0,0-2.76,6.67l.09,138.28a9.42,9.42,0,0,0,9.42,9.42l153.14.06a9.42,9.42,0,0,0,9.08-6.9l4.36-15.71a9.37,9.37,0,0,0,3.21.43l22.26-.57a14.82,14.82,0,0,0,3.53.43h51.83a9.43,9.43,0,0,0,9.42-9.43l0-70a9.43,9.43,0,0,0-6.21-8.85,9.42,9.42,0,0,0,5.08-8.36V14.48A9.42,9.42,0,0,0,259,5.05h0L12.71,5.51A9.42,9.42,0,0,0,6,8.28Z"/><path class="cls-1" d="M6.13,8.41a9.42,9.42,0,0,0-2.76,6.67l.09,138.28a9.42,9.42,0,0,0,9.42,9.42l153.14.06a9.42,9.42,0,0,0,9.08-6.9l4.36-15.71a9.37,9.37,0,0,0,3.21.43l22.26-.56a15.06,15.06,0,0,0,3.53.42H260.3a9.43,9.43,0,0,0,9.42-9.43l0-70a9.43,9.43,0,0,0-6.21-8.85,9.42,9.42,0,0,0,5.08-8.36V14.61a9.42,9.42,0,0,0-9.42-9.42h0L12.8,5.65A9.42,9.42,0,0,0,6.13,8.41Z"/><path class="cls-1" d="M6.22,8.55a9.42,9.42,0,0,0-2.76,6.67L3.55,153.5A9.42,9.42,0,0,0,13,162.92l153.14.06a9.42,9.42,0,0,0,9.08-6.9l4.36-15.71a9.37,9.37,0,0,0,3.21.43l22.26-.55a15.31,15.31,0,0,0,3.53.41h51.83a9.43,9.43,0,0,0,9.42-9.43l0-70a9.43,9.43,0,0,0-6.21-8.85A9.42,9.42,0,0,0,268.65,44V14.75a9.42,9.42,0,0,0-9.42-9.42h0L12.88,5.79A9.42,9.42,0,0,0,6.22,8.55Z"/><path class="cls-1" d="M6.31,8.69a9.42,9.42,0,0,0-2.76,6.67l.09,138.28a9.42,9.42,0,0,0,9.42,9.42l153.14.06a9.42,9.42,0,0,0,9.08-6.9l4.36-15.71a9.37,9.37,0,0,0,3.21.43l22.26-.54a15.56,15.56,0,0,0,3.53.41h51.83a9.43,9.43,0,0,0,9.42-9.43l0-70a9.43,9.43,0,0,0-6.21-8.85,9.42,9.42,0,0,0,5.08-8.36V14.89a9.42,9.42,0,0,0-9.42-9.42h0L13,5.92A9.42,9.42,0,0,0,6.31,8.69Z"/><path class="cls-1" d="M6.39,8.82a9.42,9.42,0,0,0-2.76,6.67l.09,138.28a9.42,9.42,0,0,0,9.42,9.42l153.14.06a9.42,9.42,0,0,0,9.08-6.9l4.36-15.71a9.37,9.37,0,0,0,3.21.43l22.26-.53a15.82,15.82,0,0,0,3.53.4h51.83a9.43,9.43,0,0,0,9.42-9.43l0-70a9.43,9.43,0,0,0-6.21-8.85,9.42,9.42,0,0,0,5.08-8.36V15A9.42,9.42,0,0,0,259.4,5.6h0L13.06,6.06A9.42,9.42,0,0,0,6.39,8.82Z"/><path class="cls-1" d="M6.48,9a9.42,9.42,0,0,0-2.76,6.67l.09,138.28a9.42,9.42,0,0,0,9.42,9.42l153.14.06a9.42,9.42,0,0,0,9.08-6.9l4.36-15.71a9.37,9.37,0,0,0,3.21.43l22.26-.53a16.1,16.1,0,0,0,3.53.39h51.83a9.43,9.43,0,0,0,9.42-9.43l0-70a9.43,9.43,0,0,0-6.21-8.85,9.42,9.42,0,0,0,5.08-8.36V15.16a9.42,9.42,0,0,0-9.42-9.42h0L13.15,6.2A9.42,9.42,0,0,0,6.48,9Z"/><path class="cls-1" d="M6.57,9.09a9.42,9.42,0,0,0-2.76,6.67L3.91,154a9.42,9.42,0,0,0,9.42,9.42l153.14.06a9.42,9.42,0,0,0,9.08-6.9l4.36-15.71a9.37,9.37,0,0,0,3.21.43l22.26-.52a16.38,16.38,0,0,0,3.53.39h51.83a9.43,9.43,0,0,0,9.42-9.43l0-70a9.43,9.43,0,0,0-6.21-8.85A9.42,9.42,0,0,0,269,44.53V15.29a9.42,9.42,0,0,0-9.42-9.42h0L13.24,6.33A9.42,9.42,0,0,0,6.57,9.09Z"/><path class="cls-1" d="M6.66,9.23A9.42,9.42,0,0,0,3.9,15.9L4,154.18a9.42,9.42,0,0,0,9.42,9.42l153.14.06a9.42,9.42,0,0,0,9.08-6.9L180,141a9.37,9.37,0,0,0,3.21.43l22.26-.51a16.67,16.67,0,0,0,3.53.38h51.83a9.43,9.43,0,0,0,9.42-9.43l0-70A9.43,9.43,0,0,0,264,53a9.42,9.42,0,0,0,5.08-8.36V15.43A9.42,9.42,0,0,0,259.67,6h0L13.33,6.47A9.42,9.42,0,0,0,6.66,9.23Z"/><path class="cls-1" d="M6.75,9.37A9.42,9.42,0,0,0,4,16l.09,138.28a9.42,9.42,0,0,0,9.42,9.42l153.14.06a9.42,9.42,0,0,0,9.08-6.9l4.36-15.71a9.37,9.37,0,0,0,3.21.43l22.26-.5a17,17,0,0,0,3.53.37h51.83a9.43,9.43,0,0,0,9.42-9.43l0-70a9.43,9.43,0,0,0-6.21-8.85,9.42,9.42,0,0,0,5.08-8.36V15.57a9.42,9.42,0,0,0-9.42-9.42h0L13.42,6.61A9.42,9.42,0,0,0,6.75,9.37Z"/><path class="cls-1" d="M6.84,9.5a9.42,9.42,0,0,0-2.76,6.67l.09,138.28a9.42,9.42,0,0,0,9.42,9.42l153.14.06a9.42,9.42,0,0,0,9.08-6.9l4.36-15.71a9.37,9.37,0,0,0,3.21.43l22.26-.49a17.29,17.29,0,0,0,3.53.37H261a9.43,9.43,0,0,0,9.42-9.43l0-70a9.43,9.43,0,0,0-6.21-8.85,9.42,9.42,0,0,0,5.08-8.36V15.7a9.42,9.42,0,0,0-9.42-9.42h0L13.5,6.74A9.42,9.42,0,0,0,6.84,9.5Z"/><path class="cls-1" d="M6.93,9.64a9.42,9.42,0,0,0-2.76,6.67l.09,138.28A9.42,9.42,0,0,0,13.69,164l153.14.06a9.42,9.42,0,0,0,9.08-6.9l4.36-15.71a9.37,9.37,0,0,0,3.21.43l22.26-.48a17.61,17.61,0,0,0,3.53.36h51.82a9.43,9.43,0,0,0,9.42-9.43l0-70a9.43,9.43,0,0,0-6.21-8.85,9.42,9.42,0,0,0,5.08-8.36V15.84a9.42,9.42,0,0,0-9.42-9.42h0L13.59,6.88A9.42,9.42,0,0,0,6.93,9.64Z"/><path class="cls-1" d="M7,9.78a9.42,9.42,0,0,0-2.76,6.67l.09,138.28a9.42,9.42,0,0,0,9.42,9.42l153.14.06a9.42,9.42,0,0,0,9.08-6.9l4.36-15.71a9.37,9.37,0,0,0,3.21.43l22.26-.48a18,18,0,0,0,3.54.35h51.82a9.43,9.43,0,0,0,9.42-9.43l0-70a9.43,9.43,0,0,0-6.21-8.85,9.42,9.42,0,0,0,5.08-8.36V16A9.42,9.42,0,0,0,260,6.55h0L13.68,7A9.42,9.42,0,0,0,7,9.78Z"/><path class="cls-1" d="M7.1,9.91a9.42,9.42,0,0,0-2.76,6.67l.09,138.28a9.42,9.42,0,0,0,9.42,9.42l153.14.06a9.42,9.42,0,0,0,9.08-6.9l4.36-15.71a9.37,9.37,0,0,0,3.21.43l22.26-.47a18.31,18.31,0,0,0,3.54.35h51.82a9.43,9.43,0,0,0,9.42-9.43l0-70a9.43,9.43,0,0,0-6.21-8.85,9.42,9.42,0,0,0,5.08-8.36V16.11a9.42,9.42,0,0,0-9.42-9.42h0L13.77,7.15A9.42,9.42,0,0,0,7.1,9.91Z"/><path class="cls-1" d="M7.19,10.05a9.42,9.42,0,0,0-2.76,6.67L4.53,155A9.42,9.42,0,0,0,14,164.42l153.14.06a9.42,9.42,0,0,0,9.08-6.9l4.36-15.71a9.37,9.37,0,0,0,3.21.43l22.26-.46a18.67,18.67,0,0,0,3.54.34h51.82a9.43,9.43,0,0,0,9.42-9.43l0-70a9.43,9.43,0,0,0-6.21-8.85,9.42,9.42,0,0,0,5.08-8.36V16.25a9.42,9.42,0,0,0-9.42-9.42h0L13.86,7.29A9.42,9.42,0,0,0,7.19,10.05Z"/><path class="cls-1" d="M7.28,10.19a9.42,9.42,0,0,0-2.76,6.67l.09,138.28A9.42,9.42,0,0,0,14,164.55l153.14.06a9.42,9.42,0,0,0,9.08-6.9L180.63,142a9.37,9.37,0,0,0,3.21.43l22.26-.45a19.05,19.05,0,0,0,3.54.33h51.82a9.43,9.43,0,0,0,9.42-9.43l0-70A9.43,9.43,0,0,0,264.63,54a9.42,9.42,0,0,0,5.08-8.36V16.39A9.42,9.42,0,0,0,260.29,7h0L13.95,7.42A9.42,9.42,0,0,0,7.28,10.19Z"/><path class="cls-1" d="M7.37,10.32A9.42,9.42,0,0,0,4.61,17l.09,138.28a9.42,9.42,0,0,0,9.42,9.42l153.14.06a9.42,9.42,0,0,0,9.08-6.9l4.36-15.71a9.37,9.37,0,0,0,3.21.43l22.26-.44a19.45,19.45,0,0,0,3.54.33h51.82A9.43,9.43,0,0,0,271,133l0-70a9.43,9.43,0,0,0-6.21-8.85,9.42,9.42,0,0,0,5.08-8.36V16.52a9.42,9.42,0,0,0-9.42-9.42h0L14,7.56A9.42,9.42,0,0,0,7.37,10.32Z"/><path class="cls-1" d="M7.46,10.46A9.42,9.42,0,0,0,4.7,17.13l.09,138.28a9.42,9.42,0,0,0,9.42,9.42l153.14.06a9.42,9.42,0,0,0,9.08-6.9l4.36-15.71a9.37,9.37,0,0,0,3.21.43l22.26-.43a19.86,19.86,0,0,0,3.54.32h51.82a9.43,9.43,0,0,0,9.42-9.43l0-70a9.43,9.43,0,0,0-6.21-8.85,9.42,9.42,0,0,0,5.08-8.36V16.66a9.42,9.42,0,0,0-9.42-9.42h0L14.13,7.7A9.42,9.42,0,0,0,7.46,10.46Z"/><path class="cls-1" d="M7.55,10.6a9.42,9.42,0,0,0-2.76,6.67l.09,138.28A9.42,9.42,0,0,0,14.31,165l153.14.06a9.42,9.42,0,0,0,9.08-6.9l4.36-15.71a9.37,9.37,0,0,0,3.21.43l22.26-.43a20.29,20.29,0,0,0,3.54.31h51.82a9.43,9.43,0,0,0,9.42-9.43l0-70a9.43,9.43,0,0,0-6.21-8.85A9.42,9.42,0,0,0,270,46V16.8a9.42,9.42,0,0,0-9.42-9.42h0L14.21,7.83A9.42,9.42,0,0,0,7.55,10.6Z"/><path class="cls-1" d="M7.64,10.73A9.42,9.42,0,0,0,4.88,17.4L5,155.68a9.42,9.42,0,0,0,9.42,9.42l153.14.06a9.42,9.42,0,0,0,9.08-6.9L181,142.55a9.37,9.37,0,0,0,3.21.43l22.26-.42a20.75,20.75,0,0,0,3.54.31H261.8a9.43,9.43,0,0,0,9.42-9.43l0-70A9.43,9.43,0,0,0,265,54.53a9.42,9.42,0,0,0,5.08-8.36V16.93a9.42,9.42,0,0,0-9.42-9.42h0L14.3,8A9.42,9.42,0,0,0,7.64,10.73Z"/><path class="cls-1" d="M7.73,10.87A9.42,9.42,0,0,0,5,17.54l.09,138.28a9.42,9.42,0,0,0,9.42,9.42l153.14.06a9.42,9.42,0,0,0,9.08-6.9l4.36-15.71a9.37,9.37,0,0,0,3.21.43l22.26-.41a21.22,21.22,0,0,0,3.54.3h51.82a9.43,9.43,0,0,0,9.42-9.43l0-70a9.43,9.43,0,0,0-6.21-8.85,9.42,9.42,0,0,0,5.08-8.36V17.07a9.42,9.42,0,0,0-9.42-9.42h0L14.39,8.11A9.42,9.42,0,0,0,7.73,10.87Z"/><path class="cls-1" d="M7.81,11a9.42,9.42,0,0,0-2.76,6.67L5.15,156a9.42,9.42,0,0,0,9.42,9.42l153.14.06a9.42,9.42,0,0,0,9.08-6.9l4.36-15.71a9.37,9.37,0,0,0,3.21.43l22.26-.4a21.71,21.71,0,0,0,3.54.29l51.81,0h0a9.43,9.43,0,0,0,9.42-9.43l0-70a9.43,9.43,0,0,0-6.21-8.85,9.42,9.42,0,0,0,5.08-8.36V17.21a9.42,9.42,0,0,0-9.42-9.42h0L14.48,8.24A9.42,9.42,0,0,0,7.81,11Z"/><path class="cls-1" d="M7.9,11.14a9.42,9.42,0,0,0-2.76,6.67l.09,138.28a9.42,9.42,0,0,0,9.42,9.42l153.14.06a9.42,9.42,0,0,0,9.08-6.9L181.25,143a9.37,9.37,0,0,0,3.21.43l22.26-.39a22.22,22.22,0,0,0,3.54.29l51.8,0h0a9.43,9.43,0,0,0,9.42-9.43l0-70a9.43,9.43,0,0,0-6.21-8.85,9.42,9.42,0,0,0,5.08-8.36V17.34a9.42,9.42,0,0,0-9.42-9.42h0L14.57,8.38A9.42,9.42,0,0,0,7.9,11.14Z"/><path class="cls-1" d="M8,11.28a9.42,9.42,0,0,0-2.76,6.67l.09,138.28a9.42,9.42,0,0,0,9.42,9.42l153.14.06a9.42,9.42,0,0,0,9.08-6.9l4.36-15.71a9.37,9.37,0,0,0,3.21.43l22.26-.38a22.77,22.77,0,0,0,3.54.28l51.8,0h0a9.43,9.43,0,0,0,9.42-9.43l0-70a9.43,9.43,0,0,0-6.21-8.85,9.42,9.42,0,0,0,5.08-8.36V17.48A9.42,9.42,0,0,0,261,8.05h0L14.66,8.52A9.42,9.42,0,0,0,8,11.28Z"/><path class="cls-1" d="M8.08,11.42a9.42,9.42,0,0,0-2.76,6.67l.09,138.28a9.42,9.42,0,0,0,9.42,9.42l153.14.06a9.42,9.42,0,0,0,9.08-6.9l4.36-15.71a9.37,9.37,0,0,0,3.21.43l22.26-.38a23.33,23.33,0,0,0,3.54.27l51.8,0h0a9.43,9.43,0,0,0,9.42-9.43l0-70a9.43,9.43,0,0,0-6.21-8.85,9.42,9.42,0,0,0,5.08-8.36V17.62a9.42,9.42,0,0,0-9.42-9.42h0L14.75,8.65A9.42,9.42,0,0,0,8.08,11.42Z"/><path class="cls-1" d="M8.17,11.55a9.42,9.42,0,0,0-2.76,6.67L5.5,156.5a9.42,9.42,0,0,0,9.42,9.42l153.14.06a9.42,9.42,0,0,0,9.08-6.9l4.36-15.71a9.37,9.37,0,0,0,3.21.43l22.26-.37a23.93,23.93,0,0,0,3.54.27l51.8,0h0a9.43,9.43,0,0,0,9.42-9.43l0-70a9.43,9.43,0,0,0-6.21-8.85A9.42,9.42,0,0,0,270.6,47V17.75a9.42,9.42,0,0,0-9.42-9.42h0L14.84,8.79A9.42,9.42,0,0,0,8.17,11.55Z"/><path class="cls-1" d="M8.26,11.69A9.42,9.42,0,0,0,5.5,18.36l.09,138.28A9.42,9.42,0,0,0,15,166.06l153.14.06a9.42,9.42,0,0,0,9.08-6.9l4.36-15.71a9.37,9.37,0,0,0,3.21.43l22.26-.36a24.56,24.56,0,0,0,3.54.26l51.8,0h0a9.43,9.43,0,0,0,9.42-9.43l0-70a9.43,9.43,0,0,0-6.21-8.85,9.42,9.42,0,0,0,5.08-8.36V17.89a9.42,9.42,0,0,0-9.42-9.42h0L14.92,8.93A9.42,9.42,0,0,0,8.26,11.69Z"/><path class="cls-1" d="M8.35,11.83a9.42,9.42,0,0,0-2.76,6.67l.09,138.28a9.42,9.42,0,0,0,9.42,9.42l153.14.06a9.42,9.42,0,0,0,9.08-6.9l4.36-15.71a9.37,9.37,0,0,0,3.21.43l22.26-.35a25.22,25.22,0,0,0,3.54.25l51.8,0h0a9.43,9.43,0,0,0,9.42-9.43l0-70a9.43,9.43,0,0,0-6.21-8.85,9.42,9.42,0,0,0,5.08-8.36V18a9.42,9.42,0,0,0-9.42-9.42h0L15,9.06A9.42,9.42,0,0,0,8.35,11.83Z"/><path class="cls-1" d="M8.44,12a9.42,9.42,0,0,0-2.76,6.67l.09,138.28a9.42,9.42,0,0,0,9.42,9.42l153.14.06a9.42,9.42,0,0,0,9.08-6.9l4.36-15.71a9.37,9.37,0,0,0,3.21.43l22.26-.34a25.91,25.91,0,0,0,3.55.24l51.8,0h0a9.43,9.43,0,0,0,9.42-9.43l0-70a9.43,9.43,0,0,0-6.21-8.85,9.42,9.42,0,0,0,5.08-8.36V18.16a9.42,9.42,0,0,0-9.42-9.42h0L15.1,9.2A9.42,9.42,0,0,0,8.44,12Z"/><path class="cls-1" d="M8.52,12.1a9.42,9.42,0,0,0-2.76,6.67L5.86,157a9.42,9.42,0,0,0,9.42,9.42l153.14.06a9.42,9.42,0,0,0,9.08-6.9l4.36-15.71a9.37,9.37,0,0,0,3.21.43l22.26-.34a26.65,26.65,0,0,0,3.55.24l51.8,0h0a9.43,9.43,0,0,0,9.42-9.43l0-70a9.43,9.43,0,0,0-6.21-8.85A9.42,9.42,0,0,0,271,47.53V18.3a9.42,9.42,0,0,0-9.42-9.42h0L15.19,9.34A9.42,9.42,0,0,0,8.52,12.1Z"/><path class="cls-1" d="M8.61,12.23A9.42,9.42,0,0,0,5.85,18.9l.09,138.28a9.42,9.42,0,0,0,9.42,9.42l153.14.06a9.42,9.42,0,0,0,9.08-6.9L182,144.05a9.37,9.37,0,0,0,3.21.43l22.26-.33a27.42,27.42,0,0,0,3.55.23l51.8,0h0a9.43,9.43,0,0,0,9.42-9.43l0-70A9.43,9.43,0,0,0,266,56,9.42,9.42,0,0,0,271,47.67V18.43A9.42,9.42,0,0,0,261.62,9h0L15.28,9.47A9.42,9.42,0,0,0,8.61,12.23Z"/><path class="cls-1" d="M8.7,12.37A9.42,9.42,0,0,0,5.94,19L6,157.32a9.42,9.42,0,0,0,9.42,9.42l153.14.06a9.42,9.42,0,0,0,9.08-6.9L182,144.19a9.37,9.37,0,0,0,3.21.43l22.26-.32a28.25,28.25,0,0,0,3.55.22l51.8,0h0a9.43,9.43,0,0,0,9.42-9.43l0-70a9.43,9.43,0,0,0-6.21-8.85,9.42,9.42,0,0,0,5.08-8.36V18.57a9.42,9.42,0,0,0-9.42-9.42h0L15.37,9.61A9.42,9.42,0,0,0,8.7,12.37Z"/><path class="cls-1" d="M8.79,12.51A9.42,9.42,0,0,0,6,19.18l.09,138.28a9.42,9.42,0,0,0,9.42,9.42l153.14.06a9.42,9.42,0,0,0,9.08-6.9l4.36-15.71a9.37,9.37,0,0,0,3.21.43l22.26-.31a29.12,29.12,0,0,0,3.55.22l51.8,0h0a9.43,9.43,0,0,0,9.42-9.43l0-70a9.43,9.43,0,0,0-6.21-8.85,9.42,9.42,0,0,0,5.08-8.36V18.71a9.42,9.42,0,0,0-9.42-9.42h0L15.46,9.75A9.42,9.42,0,0,0,8.79,12.51Z"/><path class="cls-1" d="M8.88,12.64a9.42,9.42,0,0,0-2.76,6.67l.09,138.28A9.42,9.42,0,0,0,15.64,167l153.14.06a9.42,9.42,0,0,0,9.08-6.9l4.36-15.71a9.37,9.37,0,0,0,3.21.43l22.26-.3a30.05,30.05,0,0,0,3.55.21l51.8,0h0a9.43,9.43,0,0,0,9.42-9.43l0-70a9.43,9.43,0,0,0-6.21-8.85,9.42,9.42,0,0,0,5.08-8.36V18.84a9.42,9.42,0,0,0-9.42-9.42h0L15.55,9.88A9.42,9.42,0,0,0,8.88,12.64Z"/><path class="cls-1" d="M9,12.78a9.42,9.42,0,0,0-2.76,6.67L6.3,157.73a9.42,9.42,0,0,0,9.42,9.42l153.14.06a9.42,9.42,0,0,0,9.08-6.9l4.36-15.71a9.37,9.37,0,0,0,3.21.43l22.26-.29a31,31,0,0,0,3.55.2l51.8,0h0a9.43,9.43,0,0,0,9.42-9.43l0-70a9.43,9.43,0,0,0-6.21-8.85,9.42,9.42,0,0,0,5.08-8.36V19A9.42,9.42,0,0,0,262,9.56h0L15.63,10A9.42,9.42,0,0,0,9,12.78Z"/><path class="cls-1" d="M9.06,12.92A9.42,9.42,0,0,0,6.3,19.59l.09,138.28a9.42,9.42,0,0,0,9.42,9.42l153.14.06a9.42,9.42,0,0,0,9.08-6.9l4.36-15.71a9.37,9.37,0,0,0,3.21.43l22.26-.29a32.1,32.1,0,0,0,3.55.2l51.8,0h0a9.43,9.43,0,0,0,9.42-9.43l0-70a9.43,9.43,0,0,0-6.21-8.85,9.42,9.42,0,0,0,5.08-8.36V19.12a9.42,9.42,0,0,0-9.42-9.42h0l-246.31.46A9.42,9.42,0,0,0,9.06,12.92Z"/><path class="cls-1" d="M9.14,13.05a9.42,9.42,0,0,0-2.76,6.67L6.48,158a9.42,9.42,0,0,0,9.42,9.42l153.14.06a9.42,9.42,0,0,0,9.08-6.9l4.36-15.71a9.37,9.37,0,0,0,3.21.43L208,145a33.23,33.23,0,0,0,3.55.19l51.8,0h0a9.43,9.43,0,0,0,9.42-9.43l0-70a9.43,9.43,0,0,0-6.21-8.85,9.42,9.42,0,0,0,5.08-8.36V19.25a9.42,9.42,0,0,0-9.42-9.42h0l-246.31.46A9.42,9.42,0,0,0,9.14,13.05Z"/><path class="cls-1" d="M9.23,13.19a9.42,9.42,0,0,0-2.76,6.67l.09,138.28A9.42,9.42,0,0,0,16,167.56l153.14.06a9.42,9.42,0,0,0,9.08-6.9L182.58,145a9.37,9.37,0,0,0,3.21.43l22.26-.27a34.44,34.44,0,0,0,3.55.18l51.79,0h0a9.43,9.43,0,0,0,9.42-9.43l0-70A9.43,9.43,0,0,0,266.58,57a9.42,9.42,0,0,0,5.08-8.36V19.39A9.42,9.42,0,0,0,262.24,10h0L15.9,10.43A9.42,9.42,0,0,0,9.23,13.19Z"/><path class="cls-1" d="M9.32,13.33A9.42,9.42,0,0,0,6.56,20l.09,138.28a9.42,9.42,0,0,0,9.42,9.42l153.14.06a9.42,9.42,0,0,0,9.08-6.9l4.36-15.71a9.37,9.37,0,0,0,3.21.43l22.26-.26c.29.12,3.22.18,3.55.18l51.79,0h0a9.43,9.43,0,0,0,9.42-9.43l0-70a9.43,9.43,0,0,0-6.21-8.85,9.42,9.42,0,0,0,5.08-8.36V19.53a9.42,9.42,0,0,0-9.42-9.42h0L16,10.56A9.42,9.42,0,0,0,9.32,13.33Z"/><path class="cls-1" d="M9.41,13.46a9.42,9.42,0,0,0-2.76,6.67l.09,138.28a9.42,9.42,0,0,0,9.42,9.42l153.14.06a9.42,9.42,0,0,0,9.08-6.9l4.36-15.71a9.37,9.37,0,0,0,3.21.43l22.26-.25c.28.11,3.23.17,3.55.17l51.79,0h0a9.43,9.43,0,0,0,9.42-9.43l0-70a9.43,9.43,0,0,0-6.21-8.85,9.42,9.42,0,0,0,5.08-8.36V19.66a9.42,9.42,0,0,0-9.42-9.42h0L16.08,10.7A9.42,9.42,0,0,0,9.41,13.46Z"/><path class="cls-1" d="M9.5,13.6a9.42,9.42,0,0,0-2.76,6.67l.09,138.28A9.42,9.42,0,0,0,16.26,168L169.4,168a9.42,9.42,0,0,0,9.08-6.9l4.36-15.71a9.37,9.37,0,0,0,3.21.43l22.26-.24c.27.11,3.25.16,3.55.16l51.79,0h0a9.43,9.43,0,0,0,9.42-9.43l0-70a9.43,9.43,0,0,0-6.21-8.85A9.42,9.42,0,0,0,271.93,49V19.8a9.42,9.42,0,0,0-9.42-9.42h0l-246.31.46A9.42,9.42,0,0,0,9.5,13.6Z"/><path class="cls-1" d="M9.59,13.74A9.42,9.42,0,0,0,6.83,20.4l.09,138.28a9.42,9.42,0,0,0,9.42,9.42l153.14.06a9.42,9.42,0,0,0,9.08-6.9l4.36-15.71a9.37,9.37,0,0,0,3.21.43l22.26-.24c.26.1,3.26.16,3.55.16l51.79,0h0a9.43,9.43,0,0,0,9.42-9.43l0-70a9.43,9.43,0,0,0-6.21-8.85A9.42,9.42,0,0,0,272,49.17V19.94a9.42,9.42,0,0,0-9.42-9.42h0L16.25,11A9.42,9.42,0,0,0,9.59,13.74Z"/><path class="cls-1" d="M9.68,13.87a9.42,9.42,0,0,0-2.76,6.67L7,158.82a9.42,9.42,0,0,0,9.42,9.42l153.14.06a9.42,9.42,0,0,0,9.08-6.9L183,145.69a9.37,9.37,0,0,0,3.21.43l22.26-.23c.25.1,3.27.15,3.55.15l51.79,0h0a9.43,9.43,0,0,0,9.42-9.43l0-70A9.43,9.43,0,0,0,267,57.67a9.42,9.42,0,0,0,5.08-8.36V20.07a9.42,9.42,0,0,0-9.42-9.42h0l-246.31.46A9.42,9.42,0,0,0,9.68,13.87Z"/><path class="cls-1" d="M9.77,14A9.42,9.42,0,0,0,7,20.68L7.1,159a9.42,9.42,0,0,0,9.42,9.42l153.14.06a9.42,9.42,0,0,0,9.08-6.9l4.36-15.71a9.37,9.37,0,0,0,3.21.43l22.26-.22c.24.09,3.29.14,3.55.14l51.79-.05h0a9.43,9.43,0,0,0,9.42-9.43l0-70a9.43,9.43,0,0,0-6.21-8.85,9.42,9.42,0,0,0,5.08-8.36V20.21a9.42,9.42,0,0,0-9.42-9.42h0l-246.31.46A9.42,9.42,0,0,0,9.77,14Z"/><path class="cls-1" d="M9.85,14.15A9.42,9.42,0,0,0,7.1,20.81L7.19,159.1a9.42,9.42,0,0,0,9.42,9.42l153.14.06a9.42,9.42,0,0,0,9.08-6.9L183.2,146a9.37,9.37,0,0,0,3.21.43l22.26-.21c.23.09,3.3.14,3.56.14l51.79-.05h0a9.43,9.43,0,0,0,9.42-9.43l0-70a9.43,9.43,0,0,0-6.21-8.85,9.42,9.42,0,0,0,5.08-8.36V20.35a9.42,9.42,0,0,0-9.42-9.42h0l-246.31.46A9.42,9.42,0,0,0,9.85,14.15Z"/><path class="cls-1" d="M9.94,14.28A9.42,9.42,0,0,0,7.18,21l.09,138.28a9.42,9.42,0,0,0,9.42,9.42l153.14.06a9.42,9.42,0,0,0,9.08-6.9l4.36-15.71a9.37,9.37,0,0,0,3.21.43l22.26-.2c.21.09,3.31.13,3.56.13l51.79-.05h0a9.43,9.43,0,0,0,9.42-9.43l0-70a9.43,9.43,0,0,0-6.21-8.85,9.42,9.42,0,0,0,5.08-8.36V20.48a9.42,9.42,0,0,0-9.42-9.42h0l-246.31.46A9.42,9.42,0,0,0,9.94,14.28Z"/><path class="cls-1" d="M10,14.42a9.42,9.42,0,0,0-2.76,6.67l.09,138.28a9.42,9.42,0,0,0,9.42,9.42l153.14.06a9.42,9.42,0,0,0,9.08-6.9l4.36-15.71a9.37,9.37,0,0,0,3.21.43l22.26-.19c.2.08,3.32.12,3.56.12l51.79-.05h0a9.43,9.43,0,0,0,9.42-9.43l0-70a9.43,9.43,0,0,0-6.21-8.85,9.42,9.42,0,0,0,5.08-8.36V20.62A9.42,9.42,0,0,0,263,11.19h0L16.7,11.66A9.42,9.42,0,0,0,10,14.42Z"/><path class="cls-1" d="M10.12,14.56a9.42,9.42,0,0,0-2.76,6.67l.09,138.28a9.42,9.42,0,0,0,9.42,9.42L170,169a9.42,9.42,0,0,0,9.08-6.9l4.36-15.71a9.37,9.37,0,0,0,3.21.43l22.26-.19c.19.08,3.34.12,3.56.12l51.79-.06h0a9.43,9.43,0,0,0,9.42-9.43l0-70a9.43,9.43,0,0,0-6.21-8.85A9.42,9.42,0,0,0,272.55,50V20.76a9.42,9.42,0,0,0-9.42-9.42h0l-246.31.46A9.42,9.42,0,0,0,10.12,14.56Z"/><path class="cls-1" d="M10.21,14.69a9.42,9.42,0,0,0-2.76,6.67l.09,138.28A9.42,9.42,0,0,0,17,169.06l153.14.06a9.42,9.42,0,0,0,9.08-6.9l4.36-15.71a9.37,9.37,0,0,0,3.21.43l22.26-.18c.18.07,3.35.11,3.56.11l51.79-.06h0a9.43,9.43,0,0,0,9.42-9.43l0-70a9.43,9.43,0,0,0-6.21-8.85,9.42,9.42,0,0,0,5.08-8.36V20.89a9.42,9.42,0,0,0-9.42-9.42h0l-246.31.46A9.42,9.42,0,0,0,10.21,14.69Z"/><path class="cls-1" d="M10.3,14.83A9.42,9.42,0,0,0,7.54,21.5l.09,138.28a9.42,9.42,0,0,0,9.42,9.42l153.14.06a9.42,9.42,0,0,0,9.08-6.9l4.36-15.71a9.37,9.37,0,0,0,3.21.43l22.26-.17c.17.07,3.36.1,3.56.1l51.79-.06h0a9.43,9.43,0,0,0,9.42-9.43l0-70a9.43,9.43,0,0,0-6.21-8.85,9.42,9.42,0,0,0,5.08-8.36V21a9.42,9.42,0,0,0-9.42-9.42h0L17,12.07A9.42,9.42,0,0,0,10.3,14.83Z"/><path class="cls-1" d="M10.39,15a9.42,9.42,0,0,0-2.76,6.67l.09,138.28a9.42,9.42,0,0,0,9.42,9.42l153.14.06a9.42,9.42,0,0,0,9.08-6.9l4.36-15.71a9.37,9.37,0,0,0,3.21.43l22.26-.16c.16.06,3.38.1,3.56.1l51.79-.06h0a9.43,9.43,0,0,0,9.42-9.43l0-70a9.43,9.43,0,0,0-6.21-8.85,9.42,9.42,0,0,0,5.08-8.36V21.17a9.42,9.42,0,0,0-9.42-9.42h0L17.05,12.2A9.42,9.42,0,0,0,10.39,15Z"/><path class="cls-1" d="M10.48,15.1a9.42,9.42,0,0,0-2.76,6.67l.09,138.28a9.42,9.42,0,0,0,9.42,9.42l153.14.06a9.42,9.42,0,0,0,9.08-6.9l4.36-15.71a9.37,9.37,0,0,0,3.21.43l22.26-.15c.15.06,3.39.09,3.56.09l51.79-.06h0a9.43,9.43,0,0,0,9.42-9.43l0-70a9.43,9.43,0,0,0-6.21-8.85,9.42,9.42,0,0,0,5.08-8.36V21.3a9.42,9.42,0,0,0-9.42-9.42h0l-246.31.46A9.42,9.42,0,0,0,10.48,15.1Z"/><path class="cls-1" d="M10.56,15.24a9.42,9.42,0,0,0-2.76,6.67L7.9,160.19a9.42,9.42,0,0,0,9.42,9.42l153.14.06a9.42,9.42,0,0,0,9.08-6.9l4.36-15.71a9.37,9.37,0,0,0,3.21.43l22.26-.14c.14.06,3.4.08,3.56.08l51.78-.06h0a9.43,9.43,0,0,0,9.42-9.43l0-70A9.43,9.43,0,0,0,267.91,59,9.42,9.42,0,0,0,273,50.67V21.44A9.42,9.42,0,0,0,263.57,12h0l-246.31.46A9.42,9.42,0,0,0,10.56,15.24Z"/><path class="cls-1" d="M10.65,15.37A9.42,9.42,0,0,0,7.89,22L8,160.32a9.42,9.42,0,0,0,9.42,9.42l153.14.06a9.42,9.42,0,0,0,9.08-6.9L184,147.19a9.37,9.37,0,0,0,3.21.43l22.26-.14c.13.05,3.41.08,3.56.08l51.78-.07h0a9.43,9.43,0,0,0,9.42-9.43l0-70A9.43,9.43,0,0,0,268,59.17a9.42,9.42,0,0,0,5.08-8.36V21.57a9.42,9.42,0,0,0-9.42-9.42h0l-246.31.46A9.42,9.42,0,0,0,10.65,15.37Z"/><path class="cls-1" d="M10.74,15.51A9.42,9.42,0,0,0,8,22.18l.09,138.28a9.42,9.42,0,0,0,9.42,9.42l153.14.06a9.42,9.42,0,0,0,9.08-6.9l4.36-15.71a9.37,9.37,0,0,0,3.21.43l22.26-.13c.12,0,3.43.07,3.56.07l51.78-.07h0a9.43,9.43,0,0,0,9.42-9.43l0-70a9.43,9.43,0,0,0-6.21-8.85,9.42,9.42,0,0,0,5.08-8.36V21.71a9.42,9.42,0,0,0-9.42-9.42h0l-246.31.46A9.42,9.42,0,0,0,10.74,15.51Z"/><path class="cls-1" d="M10.83,15.65a9.42,9.42,0,0,0-2.76,6.67L8.17,160.6A9.42,9.42,0,0,0,17.59,170l153.14.06a9.42,9.42,0,0,0,9.08-6.9l4.36-15.71a9.37,9.37,0,0,0,3.21.43l22.26-.12c.11,0,3.44.06,3.56.06l51.78-.07h0a9.43,9.43,0,0,0,9.42-9.43l0-70a9.43,9.43,0,0,0-6.21-8.85,9.42,9.42,0,0,0,5.08-8.36V21.85a9.42,9.42,0,0,0-9.42-9.42h0L17.5,12.88A9.42,9.42,0,0,0,10.83,15.65Z"/><path class="cls-1" d="M10.92,15.78a9.42,9.42,0,0,0-2.76,6.67l.09,138.28a9.42,9.42,0,0,0,9.42,9.42l153.14.06a9.42,9.42,0,0,0,9.08-6.9l4.36-15.71a9.37,9.37,0,0,0,3.21.43l22.26-.11c.1,0,3.45.06,3.56.06l51.78-.07h0a9.43,9.43,0,0,0,9.42-9.43l0-70a9.43,9.43,0,0,0-6.21-8.85,9.42,9.42,0,0,0,5.08-8.36V22a9.42,9.42,0,0,0-9.42-9.42h0L17.59,13A9.42,9.42,0,0,0,10.92,15.78Z"/><path class="cls-1" d="M11,15.92a9.42,9.42,0,0,0-2.76,6.67l.09,138.28a9.42,9.42,0,0,0,9.42,9.42l153.14.06a9.42,9.42,0,0,0,9.08-6.9l4.36-15.71a9.37,9.37,0,0,0,3.21.43l22.26-.1c.09,0,3.47,0,3.56,0l51.78-.07h0a9.43,9.43,0,0,0,9.42-9.43l0-70a9.43,9.43,0,0,0-6.21-8.85,9.42,9.42,0,0,0,5.08-8.36V22.12A9.42,9.42,0,0,0,264,12.7h0l-246.31.46A9.42,9.42,0,0,0,11,15.92Z"/><path class="cls-1" d="M11.1,16.06a9.42,9.42,0,0,0-2.76,6.67L8.43,161a9.42,9.42,0,0,0,9.42,9.42l153.14.06a9.42,9.42,0,0,0,9.08-6.9l4.36-15.71a9.37,9.37,0,0,0,3.21.43l22.26-.09c.08,0,3.48,0,3.56,0l51.78-.07h0a9.43,9.43,0,0,0,9.42-9.43l0-70a9.43,9.43,0,0,0-6.21-8.85,9.42,9.42,0,0,0,5.08-8.36V22.26a9.42,9.42,0,0,0-9.42-9.42h0l-246.31.46A9.42,9.42,0,0,0,11.1,16.06Z"/><path class="cls-1" d="M11.18,16.19a9.42,9.42,0,0,0-2.76,6.67l.09,138.28a9.42,9.42,0,0,0,9.42,9.42l153.14.06a9.42,9.42,0,0,0,9.08-6.9L184.53,148a9.37,9.37,0,0,0,3.21.43l22.26-.09c.06,0,3.49,0,3.57,0l51.78-.07h0a9.43,9.43,0,0,0,9.42-9.43l0-70A9.43,9.43,0,0,0,268.53,60a9.42,9.42,0,0,0,5.08-8.36V22.39A9.42,9.42,0,0,0,264.19,13h0l-246.31.46A9.42,9.42,0,0,0,11.18,16.19Z"/><path class="cls-1" d="M11.27,16.33A9.42,9.42,0,0,0,8.52,23l.09,138.28A9.42,9.42,0,0,0,18,170.7l153.14.06a9.42,9.42,0,0,0,9.08-6.9l4.36-15.71a9.37,9.37,0,0,0,3.21.43l22.26-.08c.05,0,3.5,0,3.57,0l51.78-.08h0a9.43,9.43,0,0,0,9.42-9.43l0-70a9.43,9.43,0,0,0-6.21-8.85,9.42,9.42,0,0,0,5.08-8.36V22.53a9.42,9.42,0,0,0-9.42-9.42h0l-246.31.46A9.42,9.42,0,0,0,11.27,16.33Z"/><path class="cls-1" d="M11.36,16.47A9.42,9.42,0,0,0,8.6,23.13L8.7,161.42a9.42,9.42,0,0,0,9.42,9.42l153.14.06a9.42,9.42,0,0,0,9.08-6.9l4.36-15.71a9.37,9.37,0,0,0,3.21.43l22.26-.07s3.52,0,3.57,0l51.78-.08h0a9.43,9.43,0,0,0,9.42-9.43l0-70a9.43,9.43,0,0,0-6.21-8.85,9.42,9.42,0,0,0,5.08-8.36V22.67a9.42,9.42,0,0,0-9.42-9.42h0L18,13.7A9.42,9.42,0,0,0,11.36,16.47Z"/><path class="cls-1" d="M11.45,16.6a9.42,9.42,0,0,0-2.76,6.67l.09,138.28A9.42,9.42,0,0,0,18.21,171l153.14.06a9.42,9.42,0,0,0,9.08-6.9l4.36-15.71a9.37,9.37,0,0,0,3.21.43l22.26-.06s3.53,0,3.57,0l51.78-.08h0A9.43,9.43,0,0,0,275,139.3l0-70a9.43,9.43,0,0,0-6.21-8.85A9.42,9.42,0,0,0,273.88,52V22.8a9.42,9.42,0,0,0-9.42-9.42h0l-246.31.46A9.42,9.42,0,0,0,11.45,16.6Z"/><path class="cls-1" d="M11.54,16.74a9.42,9.42,0,0,0-2.76,6.67l.09,138.28a9.42,9.42,0,0,0,9.42,9.42l153.14.06a9.42,9.42,0,0,0,9.08-6.9l4.36-15.71a9.37,9.37,0,0,0,3.21.43l22.26-.05h3.57l51.78-.08h0a9.43,9.43,0,0,0,9.42-9.43l0-70a9.43,9.43,0,0,0-6.21-8.85A9.42,9.42,0,0,0,274,52.17V22.94a9.42,9.42,0,0,0-9.42-9.42h0L18.21,14A9.42,9.42,0,0,0,11.54,16.74Z"/><path class="cls-1" d="M11.63,16.88a9.42,9.42,0,0,0-2.76,6.67L9,161.83a9.42,9.42,0,0,0,9.42,9.42l153.14.06a9.42,9.42,0,0,0,9.08-6.9L185,148.69a9.37,9.37,0,0,0,3.21.43l22.26,0H214l51.78-.08h0a9.43,9.43,0,0,0,9.42-9.43l0-70A9.43,9.43,0,0,0,269,60.68a9.42,9.42,0,0,0,5.08-8.36V23.08a9.42,9.42,0,0,0-9.42-9.42h0l-246.31.46A9.42,9.42,0,0,0,11.63,16.88Z"/><path class="cls-1" d="M275.27,69.67a9.43,9.43,0,0,0-6.21-8.85,9.42,9.42,0,0,0,5.08-8.36V23.21a9.42,9.42,0,0,0-9.42-9.42h0l-246.31.46A9.42,9.42,0,0,0,9,23.68L9.05,162a9.42,9.42,0,0,0,9.42,9.42l153.14.06a9.42,9.42,0,0,0,9.08-6.9l4.36-15.71a9.37,9.37,0,0,0,3.21.43l77.6-.13h0a9.43,9.43,0,0,0,9.42-9.43Z"/><path class="cls-2" d="M261.6,55.88a4.71,4.71,0,0,0-4.81-4.71l-2.67.05-.06-7.88,1.62,0a4.71,4.71,0,0,0,4.79-4.71V9.42a4.71,4.71,0,0,0-1.39-3.34,4.62,4.62,0,0,0-3.34-1.38L9.42,5.17A4.71,4.71,0,0,0,4.71,9.89l.09,138.28a4.71,4.71,0,0,0,4.71,4.71l153.14.06a4.71,4.71,0,0,0,4.54-3.45l6.41-23.1,1.31,2.13a4.72,4.72,0,0,0,4.2,2.24l77.8-.13h0a4.71,4.71,0,0,0,4.71-4.71ZM246.19,88.83h.23l-.1,18.71Zm.1,23.8,0,2.58H245A4.72,4.72,0,0,0,246.29,112.63Zm-10.52,2.58h-1.22V113A4.71,4.71,0,0,0,235.77,115.21Zm-1.29-14.39-.06-12h.14Zm-15.15-9.37A4.7,4.7,0,0,0,218,88.81h2.68A4.7,4.7,0,0,0,219.33,91.45Zm1.23,23.69h-2.47a4.7,4.7,0,0,0,1.24-2.49A4.72,4.72,0,0,0,220.56,115.14ZM184.92,43.71,176,42.77l4.67-16.37h3.64l.62,17.31Zm-40.16,0,.62-17.32H149l4.67,16.38Zm1.8,58.71-.25,1.1-.25-1.1.25,0Zm3.6,28.38-.2.72h-7.3l-.2-.72Zm5.44-51.56-.24,0s0-.07,0-.11v-.57a4.7,4.7,0,0,0,1.79.35h15.28a4.7,4.7,0,0,0,1.85-.38v.61s0,.05,0,.08H155.59ZM38.49,56.89h-.35V37.21h1.77a4.71,4.71,0,0,0-1.43,3.34l-.13,15.15A4.71,4.71,0,0,0,38.49,56.89Zm62.62-14.46h-.38l.19-1.12ZM41.75,93.84h-1.7a4.71,4.71,0,0,0,.18-1.29V90a4.71,4.71,0,0,0-.18-1.29h1.7A4.71,4.71,0,0,0,41.57,90v2.6A4.71,4.71,0,0,0,41.75,93.84Zm20.46-9.92h1.73c0,.09,0,.19,0,.28v2.37Zm143.48,33.74-.56-1.66,1.24-.35v4.21a4.73,4.73,0,0,0,.05.65,4.67,4.67,0,0,0-.63-.13A4.71,4.71,0,0,0,205.69,117.66ZM129.45,40.23l-.24,6.84-1.29-6.72a4.16,4.16,0,0,0,1.53-.12ZM75.2,33,73,44.77V41.09a4.71,4.71,0,0,0,.66-2.47l-.07-5.76A4.41,4.41,0,0,0,75.2,33Zm-12,108.27.69-1.61v1.76c-.11,0-.22-.08-.34-.1Z"/><polygon class="cls-1" points="109.22 26.43 92.6 26.43 88 53.37 113.8 52.92 109.22 26.43"/><path class="cls-1" d="M256.89,55.88l-7.43.15-.14-17.48,6.45.11V9.42l-87.71.26-3.25,11.38L161.56,9.69H129.25l-.93,26-5-26h-45L74.79,28.32,74.57,9.89H9.42l.09,138.28,112.77.05L122,120.36l-6.83.14L115,105.41l3.08.05L130,148.23h32.69L172,114.72l7,11.34,26.14-.2,51.84.07ZM205.4,22l38.37-.4v4.92l-32.29-.53V46l25.9-.53,0,4-25.93-.6v19.9L245,68.11l.06,4.91-39.7-.36Zm-64.57-.27h11.68l12.3,43.1,12.3-43.1h11.75l1.83,51.4h-5.78l-.48-24.69-11.84-1.24-4.9,21.08h-5.76L157,47.15,145.19,48.4l-.43,24.67H139Zm8.36,63.39-2.88,12.66-2.88-12.66ZM88.27,21.68h25.17l9.86,51.4h-6.6l-2-15.68-27.54.32L84.9,73.08H78.46ZM105.2,77.82l-8.89.09,1.22-8.32,6.61-.08ZM21.42,21.88h41.3l.13,10.8H57.1l.27-6.18H27.43V67.6H56.57V49.52l-7.45.13,0-2.92L62.25,47V73.21H21.42ZM59.85,121.94l-6.09,14.23H21.51V90h14v2.6H26.07v40.15H49.81l5.85-11.18V101.87L49.2,92.56H46.28V90h7.08L59.85,100ZM43.66,105.63v13l-1.12,2.13H38.07V104.55h4.85Zm31,30.17V90.14l34.31-.36v3.54l-29.69-.49v19.43l23.81-.49,0,2.71-23.83-.55V133.2l30.86-.61,0,3.53Zm78.91.43H139.08L126.23,90h6l8.22,36.14h11.7L160.38,90h6Z"/><polygon class="cls-3" points="68.25 41.13 43.2 40.6 43.06 55.75 50.57 55.62 50.57 61.6 33.43 61.6 33.43 32.49 51.1 32.49 50.84 38.67 68.91 38.67 68.64 15.88 15.42 15.88 15.42 79.21 68.25 79.21 68.25 41.13"/><path class="cls-3" d="M118.39,15.68H83.3L71.21,79.08H90.08l2.26-15.42,17.08-.2,2,15.62h19.14ZM95.13,47.25l2.53-14.82h6.51L106.69,47Z"/><polygon class="cls-3" points="151.19 48.51 157.17 74.22 172.45 74.22 178.43 48.51 179.03 79.08 196.9 79.08 194.64 15.69 172.58 15.69 164.81 42.93 157.03 15.69 135.04 15.69 132.78 79.08 150.66 79.08 151.19 48.51"/><polygon class="cls-3" points="250.96 62 217.47 62.66 217.47 55.02 243.46 55.62 243.32 39.34 217.47 39.87 217.47 32.03 249.77 32.56 249.77 15.49 199.4 16.02 199.4 78.61 251.16 79.08 250.96 62"/><path class="cls-4" d="M15.52,84v58.21H57.72l8.12-19V98.25L56.62,84Zm34.15,36.1-3.48,6.66H32.07V98.56h14l3.6,5.19Z"/><polygon class="cls-4" points="85.25 127.08 85.25 120.06 109.13 120.61 109.01 105.64 85.25 106.13 85.25 98.92 114.94 99.41 114.94 83.71 68.64 84.2 68.64 141.74 116.22 142.17 116.04 126.47 85.25 127.08"/><polygon class="cls-4" points="146.31 124.76 137.03 83.96 118.33 83.96 134.52 142.23 158.1 142.23 174.29 83.96 155.59 83.96 146.31 124.76"/><path class="cls-5" d="M172.86,104.72l7.23-21,28.58,1.67v24.7l-7,2L194,110.79v-1.47l-6.86,1-4.29-6.81,3.28-11L194,93.7v-.83l6.26.14,0,12.82,1.35.34V91.69L185,90.56,180.84,104l6.07,9.17L199,112.6l2.24,6.58-19,.75ZM190,102.19l.81,1.41,3.16-.28v-3l-3.44-.57Z"/><polygon class="cls-6" points="212.19 119.78 223.56 119.78 223.67 85.21 212.02 85.21 212.19 119.78"/><polygon class="cls-6" points="239.3 109.79 236.88 109.79 237.09 85.23 225.3 85.23 225.51 119.85 250.75 119.85 250.99 85.23 239.09 85.23 239.3 109.79"/></g></g></svg>