<svg xmlns="http://www.w3.org/2000/svg" viewBox="0 0 182.74 103.43"><defs><style>.cls-1{fill:#60bb92;}.cls-2{fill:#eaeaea;}.cls-3{fill:#5978bb;}.cls-4{fill:#ae71b0;}.cls-5{fill:none;stroke:#dd5445;stroke-width:6px;}</style></defs><title>GDIU_LogoWhiteOutlines</title><g id="Layer_2" data-name="Layer 2"><g id="Layer_1-2" data-name="Layer 1"><path class="cls-1" d="M40.64,54.55H0V.34H46.77l.28,24.21h-.54ZM7.3,47.34H39.21v-21l-11.32-.23,0,3.79,5.54-.1V41.57h-20V12.66H33.94l-.19,4.59h5.91l-.11-9.61H7.3Z"/><path class="cls-1" d="M93.52,54.55H71.64L70.2,43l-6.29.07-1.68,11.5H40.64L51,.18H83.09ZM78.09,47.24h6.6L77.06,7.48h-20L49.47,47.24h6.45l1.66-11.41,19.06-.22ZM58.48,31l3.14-18.37h11l3.12,18.08Z"/><path class="cls-1" d="M142.14,54.55H121.52l-.07-3.61H107.68l-.06,3.6H87L88.92.18h22.6l3,10.57,3-10.57h22.66Zm-13.46-7.31h5.9L133.16,7.48h-10.1l-8.52,29.89L106,7.48H96L94.55,47.24h5.89l.33-19.1,7.21-.77,3.78,16.27h5.56l3.78-16.27,7.2.76Z"/><path class="cls-1" d="M182.33,54.55H142.14L136.57.47,181.25,0V20.07L176.46,20l.12,14.61,5.52-.11Zm-38.46-7.62L175,47.2l-.06-5.27-24.91.5V29.3l19.26.44,0-4.62-19.22.4V12.26l24,.39V7.38l-30.08.31Z"/><polygon class="cls-2" points="42.86 22.73 24.27 22.34 24.17 33.58 29.74 33.48 29.74 37.92 17.02 37.92 17.02 16.31 30.13 16.31 29.94 20.9 43.35 20.9 43.16 3.99 3.65 3.99 3.65 50.99 42.86 50.99 42.86 22.73"/><path class="cls-2" d="M80.08,3.83H54l-9,47.06h14l1.68-11.45,12.67-.14,1.44,11.59H89.11ZM62.82,27.26l1.88-11h4.83L71.4,27.12Z"/><polygon class="cls-2" points="104.42 28.2 108.86 47.29 120.21 47.29 124.65 28.2 125.1 50.89 138.36 50.89 136.69 3.83 120.31 3.83 114.54 24.06 108.77 3.83 92.44 3.83 90.77 50.89 104.03 50.89 104.42 28.2"/><polygon class="cls-2" points="178.5 38.21 153.63 38.71 153.63 33.03 172.92 33.48 172.82 21.4 153.63 21.79 153.63 15.97 177.6 16.36 177.6 3.69 140.22 4.08 140.22 50.55 178.64 50.89 178.5 38.21"/><path class="cls-3" d="M36.16,103.38H0V54.55H35l8.22,12.72V86.94ZM7,96.38H31.54L36.19,85.5V69.33l-5-7.81H7Zm20.66-4.11H11.93V65H27.26l4.26,6.13,0,13.73Z"/><path class="cls-3" d="M79.47,103.41l-41.27-.36V54.55H80.88L78.5,72.69l-4.27-.07.11,12.5,4.91-.1ZM45.2,96.11l27.19.24-.06-4.19-22.18.44V80.4l17.15.4,0-3.62-17.12.35V65.22l21.35.35V61.38l-26.3.27Z"/><path class="cls-3" d="M108.71,103.43H86.43L72.85,54.55H93.68l3.89,17,3.88-17h20.84Zm-17-7h11.64l9.7-34.91H107l-6,26.62H94.16L88.1,61.52h-6Z"/><path class="cls-2" d="M3.5,58V99.88H33.85l5.84-13.66V68.3L33.06,58ZM28.06,84l-2.51,4.75H15.43V68.52h10L28,72.25Z"/><polygon class="cls-2" points="53.65 89.03 53.65 83.98 70.83 84.38 70.74 73.61 53.65 73.96 53.65 68.78 75 69.13 75 57.84 41.7 58.19 41.7 99.58 75.93 99.88 75.79 88.59 53.65 89.03"/><polygon class="cls-2" points="97.57 87.36 90.89 58.02 77.45 58.02 89.09 99.93 106.05 99.93 117.69 58.02 104.24 58.02 97.57 87.36"/><polygon class="cls-4" points="126.09 86.54 116.91 73.39 122.28 54.47 147.99 54.55 149.25 77.33 143.31 79.4 145.45 84.72 126.09 86.54"/><path class="cls-2" d="M120.19,72.84l4.36-15.37,20.6.07,1,17.7L141.21,77l-5.57-.63-.06-1-4.88,1-3.35-4.72,1.92-8,5.7.6,0-.6,4.51-.15.53,9.23,1,.18-.57-10.41-12-.15-2.46,9.85,4.73,6.34,8.65-.92,1.87,4.64-13.62,1.28Zm12.22-2.49.63,1L135.3,71l-.12-2.16-2.49-.27Z"/><polygon class="cls-5" points="151.82 82.41 160 82.41 160.08 57.55 151.7 57.55 151.82 82.41"/><polygon class="cls-5" points="171.32 75.22 169.58 75.22 169.73 57.56 161.25 57.56 161.4 82.46 179.55 82.46 179.72 57.56 171.17 57.56 171.32 75.22"/><polygon class="cls-2" points="151.82 82.41 160 82.41 160.08 57.55 151.7 57.55 151.82 82.41"/><polygon class="cls-2" points="171.32 75.22 169.58 75.22 169.73 57.56 161.25 57.56 161.4 82.46 179.55 82.46 179.72 57.56 171.17 57.56 171.32 75.22"/></g></g></svg>