<svg xmlns="http://www.w3.org/2000/svg" viewBox="0 0 85.83 91.14"><defs><style>.cls-1{fill:#222d2f;}</style></defs><title>GDIU_IconBlack</title><g id="Layer_2" data-name="Layer 2"><g id="Layer_1-2" data-name="Layer 1"><polygon class="cls-1" points="42.95 16.47 42.76 0.1 4.53 0.1 4.53 45.58 42.47 45.58 42.47 18.23 24.48 17.85 24.38 28.73 29.77 28.64 29.77 32.93 17.46 32.93 17.46 12.03 30.16 12.03 29.96 16.47 42.95 16.47"/><path class="cls-1" d="M78.63,0H46.51V45.49h33l6.35-14.84V11.17ZM73.19,28.21l-2.72,5.2h-11v-22H70.37l2.82,4.06Z"/><polygon class="cls-1" points="46.62 87.53 57.9 87.53 58.01 50.85 46.45 50.85 46.62 87.53"/><polygon class="cls-1" points="73.5 76.92 71.1 76.92 71.31 50.88 59.62 50.88 59.83 87.6 84.86 87.6 85.09 50.88 73.3 50.88 73.5 76.92"/><path class="cls-1" d="M0,73.12l11.08,18L34,90.24l-2.88-8.47L17,82.49l-6.8-10.27,4.68-15.13,18.55,1.26V74.2L32.7,74l0-15-8.11-.18v.9l-9-1.44-4,13.33L16.8,80l7.75-1.08v1.58L33.91,82l8.51-2.43V50.25l-33.87-2Zm24.54-2.07-3,.27-.72-1.26.5-2.34,3.24.54Z"/></g></g></svg>