<svg xmlns="http://www.w3.org/2000/svg" viewBox="0 0 5116.02 2674.18"><defs><style>.cls-1{fill:#e74980;}.cls-2{fill:#5c78ba;}.cls-3{fill:#fdc367;}.cls-4{fill:#de5544;}.cls-5{fill:#61bb91;}.cls-6{fill:#b961a2;}.cls-7{fill:#e36549;}.cls-8{fill:#9973b2;}.cls-9{fill:#e54c73;}.cls-10{fill:#92bd84;}.cls-11{fill:#6d77b9;}.cls-12{fill:#ec8653;}.cls-13{fill:#e2c16d;}.cls-14{fill:#5f93a8;}.cls-15{fill:#c49e8f;}</style></defs><title>Asset 1</title><g id="Layer_2" data-name="Layer 2"><g id="Layer_1-2" data-name="Layer 1"><path class="cls-1" d="M642.42,1137.55a1.69,1.69,0,0,1-1.4.81c-5.35,0-8.42-4.21-12.38-6.76-25.34-24-51.62-46.95-77.46-70.39q-34.71-31.47-69.69-62.64c-32-28.57-63.62-57.46-95.52-86.1-27-24.19-53.69-48.64-80.79-72.67-2.26-2-4.3-4.19-4.9-7.33C303,804,308,775.76,311.86,747.4c13.39-98.32,27.81-196.49,41.22-294.81.26-1.9,1.18-3.86,0-6.19-28.29,38.93-55.78,78.18-83.51,117.25Q183.4,685,97.19,806.38c-7.14,10-13.29,20.77-21.9,29.72a6.58,6.58,0,0,1-4.22,1.29,8.87,8.87,0,0,1-5.21-2.71C43.79,812.58,20.94,791.24,0,768V350c4.69-4.4,10-2.54,15.15-1.37,52.31,12,104.51,24.39,156.75,36.66,56.78,13.33,113.63,26.37,170.35,40,2.15.51,4.4,1.75,6.7.3.71-2.38-1.11-3.69-2.24-5.18-65.07-85.77-129-172.4-194.07-258.17C114.56,112.06,77.24,61.3,38.82,11.38,36.31,8.12,32.49,5.12,34,0H166c10.15,2.31,19.21,7.21,28.43,11.78,80.9,40.12,161.15,81.53,241.76,122.24,45.8,23.12,91.7,46.07,137.4,69.42,3.55,1.81,7.25,3.39,10.18,6.24a7.85,7.85,0,0,1,1.55,2.63,7.46,7.46,0,0,1-.29,4.48c-4.46,7.17-10.9,12.56-17,18.21-34.84,32.46-68.45,66.19-103,98.91-28.29,26.78-55.13,55.06-84.31,80.92-4.62,4.1-9.83,7.95-12.38,14.62,5.2,5.2,11.85,7.5,18.33,9.76,63.53,22.14,126.87,44.82,190.43,66.9,27,9.39,53.63,20.16,81.29,27.81a33.29,33.29,0,0,0,6,1.68c28.9,5.87,57.64,12.42,86.44,18.67,5.1,1.1,10.57,1.68,14.49,5.88a10.15,10.15,0,0,1,1.36,3.3c2.67,24.49,3.39,49.11,5,73.67,2.66,40.82,4.88,81.67,7.57,122.5,1.57,23.9,2.84,47.82,4.3,71.73,1.31,21.57,2.62,43.16,3.75,64.73-.15,1.07-.34,2.17-.51,3.24-1.08,5.32-4.11,9.74-6.84,14.29q-63.93,106.46-127.75,213C649.61,1130.87,647.44,1135.48,642.42,1137.55Z"/><path class="cls-2" d="M4500,0h326c3.56,2.75,5.27,6.67,7.07,10.65,17.16,37.86,34.48,75.64,51.51,113.57,3.81,8.49,6.35,9.12,13.06,2.71,28.39-27.08,57.65-53.2,86.3-80q22.57-21.1,45.63-41.71C5032.13,3,5035.35,2,5038,0c24,0,48-.15,72,.26,2,0,5.72,3.72,5.74,5.74.37,32,.26,64,.26,96a24.05,24.05,0,0,1-8.43,9.51C5033.38,158.13,4960,206,4886.34,253.39q-26.9,17.31-53.84,34.52c-3.36,2.13-6.64,4.63-11,3.66a5.74,5.74,0,0,1-2.34-1.6c-2.42-5,.44-9,2.31-13.2,18.27-40.69,37.48-80.94,55.77-121.88-11.57,11.23-24.11,21.35-35.45,32.69-46.87,46.84-95.5,91.87-142.86,138.23q-52.08,51-105.1,101.06c-25.64,24.24-50,49.82-76.63,73-.58.74-1.2,1.43-1.84,2.12a27.45,27.45,0,0,0-3.66,4.31,16.36,16.36,0,0,1-8.5,5.57c-5,1-9.12-1.53-13.22-3.62-58.72-29.95-117-60.65-175.38-91.31-18.86-9.91-38.1-19.1-56.64-29.6-4-2.26-8.81-3.46-10.75-8.35-.31-4.36,2.34-7.53,4.51-10.82C4331.22,248,4412.29,128.86,4491.92,8.75A38.13,38.13,0,0,1,4500,0Z"/><path class="cls-3" d="M2726.27,897q-1.24-3.8-2.48-7.59a47.74,47.74,0,0,1-6.37-15.61q-48.8-218.89-97.5-437.82c-.87-3.91-.91-7.94-2.05-11.79A12.47,12.47,0,0,1,2618,419c19.32-133.15,40.28-266,60.46-399.07,1-6.77.55-14.14,5.52-19.89h6c3.05,3.09,3.39,7,3.61,11.07,2.09,37.48,7.49,74.64,11,112,3.88,41.31,9.47,82.45,12.39,123.84,5,25.25,15,49,22.52,73.51,11.75,38.22,24.67,76.08,36.52,114.28a66.05,66.05,0,0,0,5.31,12.91c1.28,3.67,4.16,5.77,7.24,7.9,64.6,44.82,129.62,89,194.37,133.63q46.5,32,93,64c3.59,2.47,7.16,5,8.4,9.53a27.16,27.16,0,0,1,.42,6.17c-1.66,13.65-6.79,26.4-10.65,39.44-33.65,113.61-67,227.31-100.76,340.88a49.64,49.64,0,0,1-3.28,9.4c-5.33,6.35-10.35,2.1-14.81-.95q-26.34-18-52.49-36.32-68.33-47.62-136.84-95c-6.55-4.52-12.35-10.13-19.64-13.55a12.19,12.19,0,0,1-2.4-1.19c-1.73-1.22-3.23-2.79-5.21-3.67a17,17,0,0,1-2-1.43,30.27,30.27,0,0,0-4.92-3.72C2729.9,900.9,2725.92,901,2726.27,897Z"/><path class="cls-3" d="M4500,0c-27.4,41.6-54.61,83.33-82.23,124.79Q4333.2,251.77,4248.3,378.48a4.07,4.07,0,0,1-2.74,1c-16-5.94-30-15.82-44.7-24.12C4091.48,293.83,3983,230.64,3873.69,169c-6.21-3.49-13.72-5.86-16.29-13.84a28.55,28.55,0,0,1,0-10.9c6.31-43.67,12.37-87.38,18.73-131,.72-5,1.37-9.93,5.9-13.17Z"/><path class="cls-4" d="M2779.68,450.77c-6.38-18-13.23-35.91-19.06-54.12-15.58-48.67-30.72-97.48-46-146.23,4.46-12.36,12.5-22.72,19.48-33.57C2778.4,148,2822.15,78.72,2866.4,9.78c2.57-4,5.15-7.73,9.6-9.75h304c2.58,6-.72,11.08-2.73,16.2Q3148,90.57,3118.7,164.9c-22.78,57.94-45.71,115.81-68.36,173.8-1.93,4.95-3.61,10.05-7,14.31-4.38,4.43-10.25,6-15.81,8.12q-110.86,42.12-221.69,84.36c-7.09,2.7-14.14,5.66-21.72,6.89A14.49,14.49,0,0,1,2779.68,450.77Z"/><path class="cls-4" d="M4862,869.65l-4.21.06c-4-4.17-4.54-9.64-4.9-14.88q-3.21-46.27-6.69-92.53c-3.15-41.44-6.05-82.89-9.22-124.33-2.34-30.5-4.33-61-6.66-91.54-3.24-42.43-6.26-84.88-9.42-127.32-2.34-31.51-4.85-63-6.6-94.54-.49-8.85-3.88-17.76-.25-26.68,3.6-6.1,9.79-5.35,15.17-4.85,45.62,4.25,91.27,8.26,136.9,12.47,39.67,3.66,79.37,7.11,119,10.89,10.39,1,21.37-.45,30.89,5.63V634c-6,11.55-16,19.49-25.38,27.86-23.05,20.67-45.46,42-68.24,63-34.78,32-69.22,64.34-103.94,96.4-13.68,12.64-28,24.68-40.78,38.26C4873.22,864.21,4868.23,867.87,4862,869.65Z"/><path class="cls-5" d="M3882,0q-11,78.78-22,157.58c-.27,5.07-3.79,8.39-6.65,12-52.05,65.22-104.44,130.17-156.17,195.65-3.05,3.87-5.75,8.23-10.62,10.27-5.43,1-8.76-2.55-11.93-5.89q-34-35.75-67.11-72.29c-10-11.11-20.51-21.76-30.7-32.67-38.55-41.25-76.5-83.06-115.43-124a7.06,7.06,0,0,1-.75-2.77c.43-4.41,3.61-6.89,6.67-9.47Q3539.58,67.54,3612,6.73c3.71-3.12,8.11-4.33,12-6.7Z"/><path class="cls-4" d="M2620.2,420.82c-.13.75-.26,1.5-.4,2.24-.46,2.07-2.05,2.86-3.84,3.44-61.27,8-122.62,15.5-183.95,23.18q-83.58,10.45-167.12,21.22c-4.62.6-9.22,1.41-13.9.85-2.51-.59-4.07-2-4.29-4.71,5.27-14.75,12.86-28.49,19.67-42.51,29.81-61.4,59.09-123.07,88.82-184.52,24.8-51.25,49.23-102.69,74-153.94,4.59-9.47,3.29-11.63-7.17-12.58-66.28-6-132.53-12.38-198.8-18.54-41.75-3.89-83.53-7.48-125.21-12.05a17.31,17.31,0,0,1-3.07-.72,14.23,14.23,0,0,1-4-2.28c-10.53-10.27-19.39-22.13-30.15-32.21-2-1.91-4.38-4.2-2.87-7.66h432c.56,6.94-4,11.65-7.48,16.76-11.71,17.38-24.93,33.71-35.86,51.62a8.93,8.93,0,0,0-1.41,3.86c1.57,9.81,7,18,11.66,26.35,15.9,28.15,29.75,57.35,44.47,86.07,32.35,63.11,65.37,125.88,97,189.34,5.64,11.32,12.34,22.09,17.74,33.55C2618.15,411.83,2620.16,416,2620.2,420.82Z"/><path class="cls-6" d="M5116,2310q-30.18-58.4-60.34-116.78-95.44-185.67-190.79-371.4c-21.26-41.35-42.69-82.6-63.83-124-1.29-2.52-.65-6-.92-9.07,22.47.6,44,6.74,65.65,11.73q115.24,26.55,230.48,53.19c7,1.6,14.73,1.86,19.75,8.34Z"/><path class="cls-7" d="M0,2146c3.66-2.48,8.48-4.16,10.8-7.55q82.34-120.8,164.2-241.92c1.79-2.64,3.78-5.16,5.88-8l355.47,376.06c-123.15-21.77-244.13-43.14-365.1-64.54-50.17-8.88-100.3-17.89-150.49-26.61-6.8-1.18-13.84-1-20.76-1.43Z"/><path class="cls-8" d="M780,0h252c5.72,6,7.61,14,10.75,21.17,20.28,46.59,40.77,93.09,60.84,139.78,2.19,5.07,6.74,10.56,1.3,16.5a11,11,0,0,1-6.64,1.49q-50.24,3.9-100.47,7.58-48.75,3.57-97.5,7.25-47.74,3.55-95.49,7.13-46.77,3.47-93.53,6.88c-32.5,2.4-65,4.5-97.49,7.4-6.37.57-12.61-.21-18.89-.38a11.27,11.27,0,0,1-3.14-.71c-6.18-4.8-1.62-9.08,1.22-12.65,9.74-12.23,20.89-23.23,31.4-34.79,27.3-30,54.79-59.81,82.14-89.75,21.75-23.81,43.81-47.33,65.29-71.38C774.13,2.94,777.35,2,780,0Z"/><path class="cls-4" d="M3624,0q-77.22,65.05-154.39,130.16c-3,2.53-5.28,5.87-7.9,8.83,0,5-2.82,8.8-5.31,12.7-57.36,89.87-114.35,180-171.79,269.78-4.48,7-8.25,14.52-13.62,20.93-3,3.62-6.57,7.62-11.06,1.29-2-4.78-1.74-9.81-1.72-14.79.17-28.61.65-57.26-.39-85.83-2.25-61.82-2.56-123.67-4.12-185.49-1-38.88-2.19-77.76-1.61-116.67.1-6.35-.9-12.59-1.33-18.88-.52-7.5-2.35-15.37,3.24-22Z"/><path class="cls-3" d="M34,0,359.43,432.17c-63.53-14.87-123.59-28.89-183.63-43q-82-19.24-164-38.52C8.06,349.78,4,350.21,0,350V0Z"/><path class="cls-5" d="M3254,0q2.82,144.78,5.67,289.57c1.09,52.55,2.51,105.09,3.78,157.63a2.87,2.87,0,0,1-1.52,2.36,6.79,6.79,0,0,1-3,.41c-26-8.61-50.34-21-75.34-31.86-42.74-18.58-85.45-37.23-128-56.28-5.11-2.29-12.06-2.55-14-9.69L3180,0Z"/><path class="cls-9" d="M5116,2422c-1.85,9.11-4.52,18.15-5.42,27.36-5.06,51.77-9.69,103.59-14.82,159.11-131.13-105.59-260.24-209.55-392.3-315.87L5116,2336Z"/><path class="cls-2" d="M1160,0h208c52.57,11.44,102.86,30.57,154.32,45.75,17.82,5.26,35.37,11.4,53.44,15.81a9.64,9.64,0,0,1,5.18,3.74,8.22,8.22,0,0,1,.76,6.16c-31.63,54-61,109.22-91.84,163.65q-11.33,20-22.31,40.15c-2.4,4.43-5.19,8.6-10.45,10.15a8.88,8.88,0,0,1-2.91-.08c-2.67-.8-4.6-2.7-6.41-4.63-15.51-16.53-33.07-30.91-49.17-46.85-39-38.65-79.21-76.12-118.63-114.39-31.28-30.37-63.5-59.78-94.26-90.71C1179.13,22.15,1171.1,17.14,1165,10,1162.53,7.16,1158.46,5,1160,0Z"/><path class="cls-6" d="M70.18,836.05l2.83.13a1.66,1.66,0,0,1,2.38.08c2.24,2.44,3.5,5.49,5.22,8.25q126.32,173.94,252.72,347.81c2.43,3.35,6.14,6.43,4.48,11.48l-5,.54a49,49,0,0,1-14.66-2.44c-87.3-28.66-174.73-56.89-261.84-86.11-15.16-5.08-30.57-9.34-45.71-14.46-3.78-1.28-7.71-2.21-10.57-5.3V864c3.21-3.66,7.76-4.82,12-6.54Q35.38,848,58.8,838.72C62.46,837.26,66,835.39,70.18,836.05Z"/><path class="cls-1" d="M2620.2,420.82c-23.93-46-48-91.87-71.75-137.91q-52.14-101-103.88-202.2c-1.52-3-1.83-6.56-2.7-9.86,1.24-2,3.74-2.37,5.31-4a11.66,11.66,0,0,1,2.43-1.32c1.8-.58,3.5-1.42,5.31-2,1-.27,1.91-.53,2.86-.81,48.91-18.34,98.88-33.53,148.26-50.46,14.42-4.95,28.84-9.84,44-12.25h34c-8.08,55.78-15.95,111.59-24.3,167.33q-18.57,124-37.72,247.89A35.67,35.67,0,0,1,2620.2,420.82Z"/><path class="cls-3" d="M5116,322c-65.64-5.77-131.26-11.71-196.92-17.22-34.5-2.89-69.07-5-103.6-7.51-6,8.3-15.38,12.49-23.48,18-83.12,56.88-165.73,114.53-249.13,171-6.06,4.1-11.66,8.86-18,12.54-3.37,2-6.81,4.69-10.85,1.2q61.2-59.37,122.43-118.73c20.1-19.4,40.63-38.34,60.74-57.73q90.23-87,180.27-174.15c1.61-1.55,3.53-2.79,9.64-7.55-13.58,29.42-25.17,54.12-36.43,79-10.4,23-20.45,46.09-30.65,69.14l-.13-.08c18.06-10.7,36.44-20.89,54.12-32.17q118-75.27,235.64-151.07c2.2-1.42,4.24-3.12,6.35-4.68Z"/><path class="cls-4" d="M1160,0q83.82,80.21,167.6,160.46c27.08,26,53.82,52.4,80.72,78.62l46.26,45.07c-5,4.34-10.14,1.64-15,.08-42.13-13.37-84.32-26.58-126.39-40.15-65.79-21.22-131.92-41.37-197.53-63.11-3.14-.27-6.15-.89-8.56-3.12a3.46,3.46,0,0,1-.9-2.78Q1071.05,94.07,1036,13c-1.78-4.14-2.69-8.65-4-13Z"/><path class="cls-1" d="M0,1096c23.83,7.13,47.81,13.79,71.46,21.48q125.34,40.74,250.48,82.09c3.73,1.23,7.23,3.15,10.84,4.74-48.55,18.17-97.07,36.46-145.67,54.5q-89.25,33.11-178.64,65.82c-2.63,1-5.64.93-8.47,1.37Z"/><path class="cls-10" d="M584.08,211.63Q429.22,133.48,274.38,55.32C238.18,37,202.12,18.46,166,0H502c3.61,2.69,5.64,6.42,7.26,10.53Q546.42,105,583.52,199.45C585.05,203.33,587.59,207.41,584.08,211.63Z"/><path class="cls-2" d="M584.08,211.63q-31.1-80.3-62.2-160.58Q512,25.52,502,0H780C743.12,40.56,706.07,81,669.41,121.68c-26.82,29.78-53.14,60-79.68,90-1.53,1.88-3.23,1.91-5.06.45Z"/><path class="cls-3" d="M4862,869.65q65.67-60.95,131.35-121.89Q5054.64,690.87,5116,634V824c-41.79,7.92-83.55,16-125.37,23.74-41.21,7.61-82.49,14.89-123.75,22.25C4865.31,870.3,4863.6,869.79,4862,869.65Z"/><path class="cls-1" d="M2876,0q-78.12,122.35-156.29,244.68c-1.36,2.12-3.4,3.81-5.12,5.7Q2702.29,125.22,2690,0Z"/><path class="cls-9" d="M2058,0q17.05,18.93,34.1,37.88a5.73,5.73,0,0,1-3.6,4.18c-12,3.17-24.51,2.56-36.69,3.11-30.9,1.39-61.78,3.27-92.65,5-41.82,2.31-83.66,4.48-125.48,7-29.53,1.78-59.11,3.13-88.66,4.77q-47.3,2.61-94.61,5.13c-20.91,1.11-41.8,3.38-62.79,2.81a7.58,7.58,0,0,1-4.67-1.59c-3.49-4.3.08-6.75,2.76-8.92,23.43-18.87,47.74-36.6,71.38-55.2C1659.78,2,1663.44,2.27,1666,0Z"/><path class="cls-8" d="M0,1746c22.75,17.36,45.65,34.53,68.21,52.14,33.67,26.3,67.11,52.89,100.6,79.42,1.79,1.42,3.16,3.36,5.51,5.91-32,21.52-63.5,42.78-95.08,64q-35.16,23.61-70.45,47C6.21,1996.21,3,1996.88,0,1998Z"/><path class="cls-4" d="M5038,0q-58.92,54.9-117.84,109.8c-10.18,9.48-20.39,18.92-32.33,30L4826,0Z"/><path class="cls-8" d="M5116,1762l-315.87-73.26c71.79-.17,143.59-.13,215.38-.6,33.5-.21,67-1.4,100.49-2.14Z"/><path class="cls-5" d="M1577,65.08,1368,0h158c18.18,16.16,31.62,36.48,47.6,54.58C1576.14,57.48,1579.37,60.47,1577,65.08Z"/><path class="cls-3" d="M1577,65.08q-22.86-28.44-45.68-56.91A94.46,94.46,0,0,1,1526,0h140l-85.19,66.06,0,.5Z"/><path class="cls-2" d="M70.18,836.05,0,864V768C16.28,783.32,32.67,798.5,48.79,814,56.19,821,63.07,828.67,70.18,836.05Z"/><path class="cls-2" d="M2455.73,65.58a8.33,8.33,0,0,1-1.79.34c-1,1.38-2.82.92-4.06,1.78A9.56,9.56,0,0,1,2448,68a3.76,3.76,0,0,1-4.89,0L2490,0h88c.08,6.22-5.47,7-9.26,8.84-36.54,18.19-71.94,38.69-109.59,54.66A21.65,21.65,0,0,0,2455.73,65.58Z"/><path class="cls-8" d="M2455.73,65.58c12.81-7.28,25.45-14.87,38.45-21.77C2522,29,2550.05,14.6,2578,0h72q-82.52,28-165,56C2475.26,59.36,2465.48,62.41,2455.73,65.58Z"/><path class="cls-2" d="M4571.84,835.6Q4405.74,945,4239.63,1054.28c-82.21,54.06-164,108.85-247.15,161.35-19.74,12.45-44.34,17.34-66.89,25.15q-75.37,26.13-151,51.41c-3.42,1.14-8.26-2-12.44-3.12a7,7,0,0,0-2.19-3.1l.09.15c-19.08-34.45-33.69-71-50.2-106.66-23.53-50.79-46.7-101.74-69.92-152.67Q3594.07,926.29,3548,825.9c-13.67-29.64-26.29-59.77-41.16-88.85a15.15,15.15,0,0,1-1.63-5.74c-1.85-8.72,4.26-10.4,10.54-11.95,145.42-21.74,291.34-39.77,436.92-60.32,28.33-4,56.71-7.6,85-11.62a66.52,66.52,0,0,1,19.87-.29c60,20,119.15,42.41,178.73,63.62,71.18,25.34,142.21,51.13,213.32,76.7,37,13.29,73.87,26.74,110.88,39.9C4564.89,828.9,4570.66,829.34,4571.84,835.6Z"/><path class="cls-2" d="M1509.93,1189.42l-208.08-16.08a7.38,7.38,0,0,1-2.07-2.78c-2.08-10.7.28-21.27,1.64-31.72,11.36-87.42,22.1-174.92,33.08-262.39,1-8.15,3.63-16.35.69-24.63-.6-.89-1.13-1.82-1.66-2.74a23.34,23.34,0,0,1-1.54-2.71c-9-14.58-22.06-25.63-33.39-38.13-29-32-58.86-63.34-87.67-95.58-8.2-9.18-17.68-17.17-24.9-27.25-6.61-9.23-5.63-13.86,4.74-18.52q93.82-42.09,188-83.3c50.28-22.07,100.33-44.64,150.75-66.4,6.5-2.81,13-8.9,21.22-4.2a6.48,6.48,0,0,1,.4,2.86Q1491.06,612.43,1430.91,709c-25.6,41.3-51.61,82.34-76.7,123.47,37.12-36.73,76.2-72.08,113.56-109.24,8.48-8.43,18.06-15.72,26.4-24.35a20.67,20.67,0,0,1,13.28-6.33c29,.33,57.81-2.87,86.78-2.53,39.58.46,79.14-1.6,118.7-2.53,27.25-.64,54.62.48,81.75-1.7,35.88-2.89,71.85.37,107.61-3.26,6-2.91,2.73-7.59,1.66-11.26-8.44-29.12-17.46-58.06-26.29-87.06Q1835.42,445.61,1793.23,307c-1.26-4.15-2.64-8.31-1-12.69,5.94-5.86,8.15,1,10.47,3.76,11.42,13.46,22.24,27.43,33.28,41.2q126.27,157.54,252,315.54c2.9,3.63,5.23,7.73,8.79,10.85a20.79,20.79,0,0,1,2,2.2,16.7,16.7,0,0,1,1.73,2.51c1.08,2.43,3.3,4.2,4,6.87.69,2.87-.9,4.3-3.27,5.26a219.6,219.6,0,0,1-38.56,2.86c-31.83-.06-63.55,3-95.37,2.52-16.21-.22-32.32,3.52-48.57,1.47-5.45,1.1-8.26,5.15-10.77,9.59-39.49,70.08-79.34,140-119,210-12.12,21.38-24.07,42.86-37.18,63.67a10.25,10.25,0,0,1-7,2.61,8.2,8.2,0,0,1-2.86-1c-18.21-18.06-34.38-38-51.27-57.2q-53.71-61.17-107.36-122.37c-22.32-25.59-45-50.9-67.12-76.62a37.58,37.58,0,0,0-8.42-7.94c4,14.53,7.37,27.67,10.92,40.75,16,59.14,31.74,118.37,47.66,177.54,1.56,5.8,3,11.62,2.65,17.72-.14,10.42-2.67,20.51-5.2,30.42-12.33,48.3-23,97-34.88,145.39-4.67,19-9.72,38-13.53,57.23C1514.48,1183.08,1513.57,1187,1509.93,1189.42Z"/><path class="cls-8" d="M4571.84,835.6Q4459.45,794.79,4347,754q-140.65-50.75-281.41-101.25c-2.28-.82-4.08-3-6.1-4.47,1.09-6.52,7-6.49,11.43-7.9,39.35-12.63,78.94-24.46,118.42-36.69,91.36-28.3,183-55.65,274.06-85a162.73,162.73,0,0,1,20.25-4.74c-2.82,1.22-7,1.42-11,1.3-22.35-.67-44.56,2.61-66.89,2.24-42.32-.69-84.58,1.8-126.88,2.51-53.92.91-107.84,3.09-161.79,3.7-17.26.19-34.48,3.45-51.8.86-7.26-3.3-2.93-6.82.2-9.57,7.25-6.36,15.15-12,22.8-17.82,48.6-37.21,96.93-74.77,145.62-111.87,3.94-3,7.68-6.46,12.93-7.14a2.76,2.76,0,0,1,1.41.29q99.63,52.15,199.31,104.21c18.43,9.57,37.4,18.09,56.12,27.09,5.83,3,9.76,8.13,13.71,12.92,13.43,16.23,28.83,30.52,43.72,45.29,70.27,69.7,138.73,141.18,208.59,211.29q39.47,39.63,78.38,79.9c2.84,2.94,7.17,5.37,5.83,10.71-44.59-5.54-89.22-10.91-133.79-16.66-47.2-6.09-94.35-12.57-141.54-18.75C4576.46,834.2,4574.11,835.2,4571.84,835.6Z"/><path class="cls-4" d="M337.81,1203.8Q208.71,1026.2,79.64,848.58c-.93-1.28-1.27-3-1.88-4.52,5.64-4.82,10.77-1.07,15.61,1.34,29.52,14.73,58.45,30.57,87.58,46q58.71,31.11,117.4,62.3Q396.75,1006,495.25,1058q56.5,30,113.13,59.7c7.38,3.86,14.64,7.89,21.73,12.25l10.91,8.37L533.5,1486.23c-35.73-33.67-73.3-68-109.57-103.59-30.57-30-60.52-60.84-88.61-93.16-5.77-6.64-3-21.59-2.46-32.62C333.75,1239.14,336.09,1221.48,337.81,1203.8Z"/><path class="cls-5" d="M2726.27,897l8.09,5.12a16.5,16.5,0,0,1,3.7,4l-.15-.13c1.89,1.61,4.56,2.06,6.15,4.13l-.15-.13a53.56,53.56,0,0,1,11.9,9c27.88,27.24,56.49,53.7,84.92,80.34,39.85,37.34,79.11,75.3,119.44,112.14,13.27,12.12,26.16,24.68,39.2,37.06q50,47.49,100.37,94.51c8,7.44,14.58,16.34,22.27,24.14l13.1,16c-4.24,1.1-7.43,2.6-10.65,2.68-60.19,1.53-120.38,2.78-180.57,4.34-42.87,1.11-85.79,1.55-128.55,4.31-24.91,1.6-33.16-18.62-46.24-31.47-27.93-27.42-53.53-57.2-80.51-85.61-56.79-59.77-113.9-119.24-170.73-179-6.49-6.82-12-14.56-19.37-23.57C2545.68,959,2591,944,2636.14,928.63,2666.28,918.36,2696.23,907.54,2726.27,897Z"/><path class="cls-8" d="M1300.9,1171.05c.32.77.64,1.53.95,2.29l-4.53,2.48c-8.31,6.57-18.52,4.65-27.82,5.48q-100.93,9-201.87,17.93c-57,5-114,10.36-171.06,14.89-9.61.76-19.34,1-28.79,2.86-5.83,1.18-11-1.72-16.63-1.17q-74-27.9-147.91-55.85c-16.69-6.33-33.2-13.14-49.79-19.73,3.46-4.29,8.43-3.69,12.94-3.5q44.37,1.95,88.68,4.9c16.26,1.1,32.57,1.81,48.82,2.6,54.83,2.69,109.62,6.13,164.45,8.76,48.84,2.34,97.66,5.44,146.5,8,48.5,2.53,97,6,145.49,7.83,8,.31,15.84,2.22,24.68,1.85-13.92-7.7-27.69-14.59-41.28-21.77q-141.33-74.66-282.5-149.62-83-43.86-166-87.93c-4.35-2.31-9.23-4.13-11.32-9.27.09-.74.18-1.48.26-2.21,2.49-2.92,5.92-4.18,9.35-5.51q148.58-57.45,297.3-114.48a28.68,28.68,0,0,1,7.66-2.17,10.28,10.28,0,0,1,4.62.72,6.79,6.79,0,0,1,2.4,1.89q85.56,171.29,171.26,342.53C1284.84,1138.91,1294.94,1153.94,1300.9,1171.05Z"/><path class="cls-6" d="M4854,869.89q-97.35-98.79-194.68-197.61Q4583.86,595.39,4509,517.94c-2.22-2.28-3.54-5.42-5.27-8.16l6.68-5.69a18.06,18.06,0,0,0,3.64-4.16l0,.15c10.89-6.53,22.16-12.5,32.61-19.66q128.09-87.72,255.93-175.76c4.07-2.8,8.6-4.92,12.92-7.36l42.27,572.41Z"/><path class="cls-11" d="M2622.1,1392.82c41.41,173.46,82.66,346.28,124.45,521.36L2365,1800.07Q2494.06,1595.65,2622.1,1392.82Z"/><path class="cls-4" d="M1959.33,2365.34c-57.1,42.3-113.72,84.27-170.36,126.2-26.73,19.79-53.39,39.69-80.42,59.05-2.36,1.68-9,1.27-10.8-.73-38-41.21-75.49-82.79-113.11-124.31l-95.05-104.93,127.66-56.27c54.53-24,108.85-48.59,163.94-71.28,5.72-2.36,18,4.4,23.84,10.26,28.72,28.59,56.37,58.24,84.27,87.64C1912.58,2315.5,1935.68,2340.21,1959.33,2365.34Z"/><path class="cls-6" d="M784,902.07q101.13,53,202.24,106.13,96.63,51,193,102.43c38.37,20.4,76.69,40.9,119.49,63.73-37.23-1.7-69.47-2.94-101.68-4.71-28.46-1.57-56.87-4-85.34-5.55q-156.56-8.31-313.14-16.25-72.54-3.75-145.07-7.62l-11.05-2.68Q713.2,1019.82,784,902.07Z"/><path class="cls-3" d="M1037.64,1966.5c63.2,105.36,124.88,208.18,187,311.75l-372.2,210.94Z"/><path class="cls-4" d="M851.15,1215.81c39.57-3.92,79.11-8.15,118.72-11.71q158.72-14.25,317.48-28c3.3-.29,6.64-.19,10-.28l-72.42,311.77c-36.46-26.53-71.26-51.89-106.09-77.22Z"/><path class="cls-2" d="M2616.24,424.5l3.57-1.44q18.21,80.54,36.43,161.07Q2690,734.25,2723.56,884.4a29.21,29.21,0,0,1,.23,5Q2561.73,778,2399.57,666.72c-3.84-2.64-9-3.37-13.53-5a4.13,4.13,0,0,1-1.12-2.55c1.08-5.71,5.73-8.81,9.42-12.5q91.27-91.41,182.72-182.64c10.15-10.1,19.2-21.16,29.19-31.37A43.59,43.59,0,0,1,2616.24,424.5Z"/><path class="cls-1" d="M3997.49,1738.06c5.3-15.33,10-30.88,16-45.94q50.22-126.67,101-253.14c1.3-3.25,3-6.35,4.83-10.2l98.82,85.81q82.59,71.7,165.1,143.48c12.3,10.74,23.69,22.52,35.5,33.82-5.11,4.49-11.58,4.77-17.81,5.45q-146.22,16-292.44,31.8c-31.39,3.44-62.77,6.92-94.18,10.15C4008.57,1739.88,4003,1739.9,3997.49,1738.06Z"/><path class="cls-12" d="M1749.75,971.92q79.13-139.59,158.33-279.11c1.16-2,3.64-3.32,5.5-4.95,12.11,3.36,20,12.95,29.18,20.39q99.38,80.57,198.68,161.21c9.31,7.57,18.69,15,27.82,22.82,2.71,2.31,7.5,4.2,4.82,9.51q-21,10.63-42.07,21.26c-26.14,8.58-53.55,10-80.48,13.84-65.54,9.37-131.15,18.26-196.69,27.55-30,4.25-60,8.19-90,12.38-4.93.69-10,1.34-14.55-1.58A3,3,0,0,1,1749.75,971.92Z"/><path class="cls-3" d="M3680.67,2495.62c-49,26.78-97.94,53.7-147,80.29q-89.05,48.24-178.36,96c-1.35.73-2.92,1.07-6.26,2.26,38.76-133.52,77.07-265.53,112.73-388.41,27.68,24.7,59,51.76,89.26,80,16,14.93,29.86,32.11,45.05,47.92q36.64,38.13,73.88,75.66c2.51,2.53,6.87,3.22,10.37,4.76l.63.64Z"/><path class="cls-3" d="M1882.43,1056.15q-61,104.36-122.08,208.7c-8.35,14.31-16.48,28.75-24.71,43.12-5-1.39-4.82-7.54-9-9.71a99.48,99.48,0,0,1-7.28-16.75c-.26-3.86-2.74-6.57-4.9-9.46a67,67,0,0,1-5.13-12.72c-.27-3.84-2.81-6.5-4.93-9.38a64.11,64.11,0,0,1-5.13-12.87c-1.54-6.8-5.12-12.62-8.94-18.31a29.75,29.75,0,0,1-3-7.66c-.3-3.81-2.93-6.38-5-9.27a65.59,65.59,0,0,1-5.06-12.73c-.7-5.14-3.66-9.1-6.8-13a65.74,65.74,0,0,1-5.18-12.87c-.92-5.54-3.92-10.08-7-14.58a29.26,29.26,0,0,1-3-7.63c-.32-3.82-3-6.36-5-9.28-2.5-5.45-5.39-10.72-7-16.54-.93-5.56-4-10.1-7-14.62a27.9,27.9,0,0,1-3-7.72c-1-5.49-4.09-10-7.16-14.45a46.64,46.64,0,0,1-4.82-11.42c-1-5.46-4-10-7-14.42a29.49,29.49,0,0,1-3-7.57c-.32-3.8-3-6.33-5-9.22a64.59,64.59,0,0,1-5-12.79c-1.57-6.78-5.12-12.58-8.94-18.26a30,30,0,0,1-3-7.63c-.3-3.8-2.89-6.38-4.94-9.24a67.8,67.8,0,0,1-5.07-12.65c-.28-3.9-3-6.52-5-9.46-2.18-5.3-6-10.06-5.49-16.26,1.41-4,5.25-4,8.39-5.25a11.74,11.74,0,0,1,5.59,0c2.06.57,4,1.54,6.27,1.4a18.9,18.9,0,0,1,6.22.7c1.86.68,3.69,1.53,5.75,1.48a16.27,16.27,0,0,1,4.71.75,12.47,12.47,0,0,0,5.68,1.15,15.67,15.67,0,0,1,6,.69,13.48,13.48,0,0,0,7,1.43,83.82,83.82,0,0,1,13.92,2.08c2.28.79,4.45,2,7,1.79a16.59,16.59,0,0,1,6,.66,15.44,15.44,0,0,0,5.7,1.46,15.85,15.85,0,0,1,4.69.74,12.5,12.5,0,0,0,5.68,1.15,15.83,15.83,0,0,1,6,.69,13.5,13.5,0,0,0,7.07,1.42,80.83,80.83,0,0,1,14.19,2.17c2.35,1,4.73,1.9,7.37,1.6,4.87-.08,9.55,1,14.21,2.25,2.3.83,4.48,2.09,7.07,1.85a16.52,16.52,0,0,1,6.13.71,12.94,12.94,0,0,0,7.23,1.19c2.73.12,5.32.57,7.2,2.84l-.18.84a26.93,26.93,0,0,1,8.21,1.77c18.07,9.18,35.18,20,52.65,30.21q34,19.83,67.84,39.81C1876.3,1049.38,1880.93,1051.1,1882.43,1056.15Z"/><path class="cls-2" d="M3239.78,1486.59c-4.12,127-8.23,253.92-12.41,382.71L2977.86,1751l255.2-269.33Z"/><path class="cls-13" d="M3997.49,1738.06c50.17-5.71,100.32-11.62,150.52-17.09q135.32-14.74,270.68-29.08c-22.88,36.65-45.59,73.42-68.7,109.92-26,41-52.34,81.85-79,123.51q-53.58-36.64-106.91-73.11-67.14-45.8-134.32-91.49C4018.89,1753.32,4008.24,1745.62,3997.49,1738.06Z"/><path class="cls-1" d="M2595.67,2278.51c17.36,32.46,34.37,65.12,52.17,97.34,32.94,59.59,66.35,118.93,101.22,181.34l-323.53-21.68c15.85-24.6,30.46-47.28,45.06-70q59.32-92.25,118.67-184.48c1.19-1.85,3-3.3,4.55-4.94C2595.12,2276.38,2595.9,2277.05,2595.67,2278.51Z"/><path class="cls-5" d="M3946.19,2542.05c-9.78-105.59-19.39-209.33-29.12-314.28l276,45.07Z"/><path class="cls-1" d="M2207.36,2545.83l-338.53,95,96.5-272.27Z"/><path class="cls-4" d="M2595.67,2278.51l-1.86-2.39c17.42-4.18,34.74-8.82,52.27-12.46q129.2-26.85,258.48-53.25c.62-.13,1.31.09,4.46.36l-72.48,236.87c-27.41-19.94-53.95-39.19-80.43-58.52-49.52-36.15-99-72.42-148.63-108.33C2604.53,2278.66,2599.65,2279.21,2595.67,2278.51Z"/><path class="cls-4" d="M2240.6,870.6q-23.57,10.5-47.11,21c-3,1.34-6,2.76-8.94,4.15-5.17-2.55-5.69-8-7.43-12.48-22.41-58.1-42.85-116.93-64.95-175.15-3.14-8.28-8.16-16.24-6.3-25.81a6.77,6.77,0,0,1,3.1-4.06c17.7-5.84,36.24-4.08,54.37-5.7,35.09-3.13,70.26-5.27,105.42-7.52,36.82-2.36,73.56-6,110.45-7a8.41,8.41,0,0,1,3.19.39c5.62,5.89.31,10.58-2.43,14.67-11.45,17.12-22.94,34.22-34.65,51.17-32.66,47.3-64.79,95-97.31,142.34a17.38,17.38,0,0,1-3.17,3.82A4.12,4.12,0,0,1,2240.6,870.6Z"/><path class="cls-8" d="M2487.22,971.93c-15.5,24.16-30.73,48.5-46.56,72.45q-43.89,66.42-88.49,132.38c-1.47,2.18-5.3,2.78-8,4.11a46.54,46.54,0,0,1-7.07-14.18c-21.56-65-42.35-130.18-63.45-195.3-9.32-28.75-19.66-57.2-27.7-86.37-1.3-4.71-3.88-9.38-.88-14.37,5.16-4.81,10-1.07,14.62.88q77.49,33.18,155,66.27c20.19,8.6,40.41,17.12,60.57,25.78C2479.78,965.53,2484.67,967.07,2487.22,971.93Z"/><path class="cls-6" d="M2487.22,971.93q-113.83-48.57-227.7-97.08c-4.51-1.92-9.38-3-14.08-4.44a1.54,1.54,0,0,1-2-1q49.92-73.92,99.83-147.86,20.52-30.37,41.1-60.72c.54-1.43,1.12-1.44,1.73,0l0,1c9.51,30.82,18.43,61.84,28.64,92.43,23,68.9,46.68,137.58,70,206.38C2485.91,964.2,2486.39,968.13,2487.22,971.93Z"/><path class="cls-4" d="M3564.38,1079.82l-5,1a7.4,7.4,0,0,1-1.87-2.11,37.56,37.56,0,0,0-7.37-9.39c-24.21-22.91-46.38-47.8-69.41-71.83q-62.51-65.26-124.92-130.62c-3.48-3.64-7.07-7.32-5.16-13.13,10.64-14.4,25.56-24.24,38.9-35.66,34.65-29.7,69.25-59.46,104.11-88.91,2.93-2.47,5.21-6.36,10-5.45,2.85,2.85,3.46,6.41,3.32,10.23,7.37,17.38,8.69,36.14,11.8,54.39q23.09,135.2,46.1,270.38C3566.11,1065.62,3569.67,1072.94,3564.38,1079.82Z"/><path class="cls-2" d="M2329.81,2240.37c17.22,56.05,33.24,108,49.15,160.06,12.73,41.62,25.51,83.22,37.58,125,.74,2.55-4.33,9.74-6.95,9.88-64.27,3.41-128.57,6.16-193.91,9.07C2253.42,2443.86,2290.92,2344,2329.81,2240.37Z"/><path class="cls-11" d="M1721.37,1280.6q3.64,8.54,7.28,17.08a3.88,3.88,0,0,1-.72,4.47c-21.5-10.57-43.21-20.73-64.45-31.81-51.3-26.74-102.38-53.92-153.55-80.92q25.32-107.18,50.57-214.37c2.41-10.27,3.77-20.79,5.62-31.19a3.1,3.1,0,0,1,3.5-.58c3,2.13-1.62,4.62.32,6.8l6.7,15.6c1.36,3.09,3.5,5.77,4.72,8.93l5.28,13.07c1.37,3.08,3.48,5.77,4.74,8.92l3.27,7.19c1.8,6.78,5.82,12.54,8.72,18.81q2.64,6.54,5.27,13.08c1.36,3.09,3.49,5.77,4.73,8.92,1.09,2.4,2.19,4.79,3.28,7.19,1.22,5.4,4.48,9.88,6.72,14.81l5.28,11.19c1.23,5.39,4.47,9.88,6.73,14.81,1.09,2.39,2.18,4.79,3.28,7.18,1.21,5.41,4.47,9.88,6.71,14.82l7.29,17.07c1.34,3.1,3.46,5.78,4.72,8.92l3.27,7.2c1.23,5.39,4.48,9.88,6.72,14.81l5.28,13.07c2.18,4.34,4.62,8.55,6.72,12.93l5.27,13.08c1.36,3.09,3.49,5.77,4.74,8.92,1.08,2.4,2.17,4.79,3.26,7.19,1.82,6.78,5.83,12.54,8.73,18.81q2.63,6.54,5.27,13.08c1.36,3.08,3.48,5.77,4.74,8.92q2.64,6.54,5.27,13.07C1718,1274.77,1720.13,1277.45,1721.37,1280.6Z"/><path class="cls-1" d="M3564.38,1079.82q-15.63-93.85-31.28-187.7-13.39-80.07-26.88-160.13c.58-1,1.14-1,1.68,0q124.65,272.34,249.26,544.72c1.35,2.94,1.92,6.24,2.85,9.37-38.18-40.89-76.09-82-114.63-122.57-24.08-25.32-49.14-49.7-73.67-74.58C3569,1086.2,3566.81,1082.88,3564.38,1079.82Z"/><path class="cls-5" d="M3553,1084.4c-73.65,36.59-147.22,73.32-221.07,109.5-6.4,3.13-14.6,2.57-22,3.73-2.23-1-4.08-2.62-6.36-3.5a1.7,1.7,0,0,1-1.41-.33c-43.8-34.81-86.52-70.92-129.69-106.5-4.18-3.44-13.46-7.27-4.47-15.39a18.06,18.06,0,0,1,12.9.62c12.28,4.56,24.63,3.21,37,.47,25.1-.89,50.2-2.22,75.26.71,16.49,6.11,33.22,3.78,49.95,1.41,25.32-1.2,50.63-2.27,75.91.55,15.83,6,31.92,3.95,48,1.48,22-1.23,43.95-2.18,65.89.52C3538.55,1083,3547.52,1078.47,3553,1084.4Z"/><path class="cls-10" d="M3682,2494c-7.63-50.57-13.92-101.39-23.55-151.58-3.93-20.46,1.16-27.24,20.33-33.36,74.07-23.66,147.48-49.4,221.14-74.32.88-.29,2,0,4.66,0-27.72,32.57-54.64,64.31-81.67,95.94q-68.19,79.82-136.53,159.51A44.78,44.78,0,0,1,3682,2494Z"/><path class="cls-3" d="M2107.21,684.56q36.2,98,72.36,196.06c1.84,5,3.32,10.09,5,15.14l-10.46,6c-28.64-23.87-57.11-47.94-85.94-71.56Q2001,758.85,1913.58,687.86q73.71-3.2,147.41-6.36c14.3-.6,28.61-.83,42.91-1.23C2105.84,681.05,2106.46,682.86,2107.21,684.56Z"/><path class="cls-5" d="M1882.43,1056.15l-133-78.68a1.47,1.47,0,0,1,.69-1.66L2132,923.05q-120.95,64.28-241.88,128.54C1887.5,1053,1885,1054.63,1882.43,1056.15Z"/><path class="cls-5" d="M1972.8,1583.26c66.84-42,128.16-80.73,189.74-119,2.76-1.71,8.79-1,11.76.91,46.18,30.08,92.11,60.54,138.06,91,1.25.83,2,2.39,4.42,5.31Z"/><path class="cls-7" d="M2739.56,1929.5c-7.93,19.48-15.38,39.16-23.88,58.39-40.2,91-80.69,181.88-122.29,275.55-4.64-37.6-8.9-72.33-13.22-107.05-2.48-19.94-2.41-40.67-8.15-59.64-9.74-32.19,12.68-44.25,31.9-59.44q68-53.71,135.77-107.65Z"/><path class="cls-10" d="M2243.42,869.36l2,1q24.81,77.85,49.62,155.7,24.58,77.37,49.07,154.76-28.9-25.66-57.8-51.35-47-41.87-94-83.78c-3.5-3.55-1.73-7.59-.68-11.27Q2212,963.42,2233,892.54c1.61-5.45,4.85-10.19,7-15.42.21-2.17.41-4.35.62-6.52Z"/><path class="cls-4" d="M3703,1391.66l169.13,138.73L3576,1482.65Z"/><path class="cls-2" d="M1618.24,1863l273.64-179.64c-16.92,35.44-32,67.08-47.12,98.73-7.75,16.22-17.56,31.8-22.76,48.8-7.19,23.5-26.29,19.09-42.06,20.45C1727.15,1855.91,1674.23,1859.06,1618.24,1863Z"/><path class="cls-3" d="M2240,877.12q-17.08,60.86-34.2,121.7c-4.42,15.66-9,31.28-13.48,46.92-29.66,22.85-59.57,45.41-88.93,68.64-38.3,30.32-76.17,61.18-114.27,91.76-1.95,1.57-4.28,2.65-8.61,2q19.23-24.69,38.46-49.37Q2128,1019.32,2237.11,879.88A27.68,27.68,0,0,1,2240,877.12Z"/><path class="cls-4" d="M1363.81,2094c9.14-14.22,17.73-28.82,27.52-42.58,44.61-62.74,89.55-125.25,137.42-192.1-5.7,28.57-10.4,52.27-15.16,76q-15.12,75.26-30.35,150.48c-.58,2.86-2.07,5.53-3.14,8.29-3.72,3.54-8.42,3.78-13.1,3.66-31.94-.81-63.85-3.45-95.83-1.14A10.16,10.16,0,0,1,1363.81,2094Z"/><path class="cls-3" d="M1363.81,2094l116.29,0v211.89c-6.87-12.13-15.42-27-23.78-42-22.13-39.68-44.33-79.32-66.19-119.15C1381,2128.08,1372.56,2110.94,1363.81,2094Z"/><path class="cls-3" d="M1189.27,1724.84c-2.69,64.36-5.17,124.68-7.92,185-.1,2.19-2.41,5.6-4.38,6.21-43.66,13.44-87.43,26.57-134.31,40.7Z"/><path class="cls-14" d="M3435.24,1370.47l129.09,110.42L3464,1581.61C3454.52,1512.25,3445.13,1443.19,3435.24,1370.47Z"/><path class="cls-3" d="M3427.35,1941.9c-2.84,30.63-5.45,59.84-8.54,89-.14,1.36-4.62,3.32-7,3.22q-117.33-4.87-234.63-10.23c-2.9-.13-5.75-1.48-10.42-2.75Z"/><path class="cls-1" d="M3122,1267.17c-23.69-21.74-47.65-43.18-71-65.27q-99.66-94.19-198.91-188.8Q2797.92,961.62,2743.91,910c19.87,12.88,40.06,25.3,59.56,38.72,52.7,36.27,105.11,73,157.69,109.43,1.83,1.27,4.24,1.71,6.38,2.53,3.35-1.13,7.06-4.69,9.34,1.38a1.73,1.73,0,0,1-1.88,1.58c-1,3.07-3.84,7.56-2.73,9,41.41,53.94,83.22,107.58,124.88,161.34C3105.62,1244.89,3113.74,1256.09,3122,1267.17Z"/><path class="cls-10" d="M3166,1075.05c15.82,14.24,31.26,28.94,47.55,42.61,27.17,22.8,54.94,44.89,82.29,67.47,2.66,2.19,4.21,5.74,6.28,8.67-32.57-12.68-65.27-25-97.69-38.11q-109.86-44.28-219.49-89.16a18.38,18.38,0,0,1-3.23-2.19l1.14-1.45c4.29-2.64,9.13-2.14,13.65-1.67,41.95,4.35,84.14,5.13,126.15,8.59,13.59,1.12,27.34,0,40.83,2.75A3.59,3.59,0,0,1,3166,1075.05Z"/><path class="cls-10" d="M3553,1084.4l-19-3.35c7.44-6.31,16-6.69,26-1.14a.94.94,0,0,1-.55.9Z"/><path class="cls-15" d="M1727.93,1302.15l.72-4.47,7,10.29-5.08-2.2c-1.84-.56-1.3-2.84-2.69-3.74Z"/><path class="cls-10" d="M3303.55,1194.13l6.36,3.5Z"/><path class="cls-10" d="M2975,1063.62l1.38-1.84c1.65-1.65,3.57-1.59,5.6-.91a4.64,4.64,0,0,1,2.11,2.11c-.79.45-1.58.9-2.36,1.36Z"/><path class="cls-5" d="M1975.43,1583.1a5.88,5.88,0,0,1-1.15.21c-.08,0-.14-.36-.2-.55Z"/><path class="cls-3" d="M1978.09,1214.11l1.41-3.51a9.17,9.17,0,0,1,.88,1.09c-.76.81-1.6,1.53-2.42,2.28Z"/><path class="cls-11" d="M1727.88,1302l2.69,3.74C1729.68,1304.52,1728.78,1303.28,1727.88,1302Z"/><path class="cls-7" d="M2739.69,1929.66l.94-.26-1.06.11Z"/><path class="cls-1" d="M3759.92,1286l2.19,3.1Z"/><path class="cls-3" d="M1978,1214l-.87,1.27,1-1.13Z"/><path class="cls-10" d="M3680.67,2495.62a4.53,4.53,0,0,1-.37-1.49,1.17,1.17,0,0,1,1.65-.17l.06.08C3681.57,2494.57,3681.12,2495.09,3680.67,2495.62Z"/><path class="cls-2" d="M1103,779.91l-2.9-.11c-21.07-10.2-39.88-24.09-59.45-36.71q-132.3-85.33-264.56-170.74c-4.48-2.9-9-5.74-12-10.4a3,3,0,0,1-.93-1.49c-2.66-4.65-.64-9.07.72-13.48,23.41-76.35,46.15-152.9,70.48-229a28.92,28.92,0,0,0,.77-5.91,11.53,11.53,0,0,1,.58-3.13,12.7,12.7,0,0,1,2.33-4.09,6.33,6.33,0,0,1,3.95-2.07c11.36,5.64,18.06,16.3,26.2,25.21q36,39.39,71.83,79t71.76,79.05q33.89,37.31,67.83,74.56c24.16,26.58,48.51,53,72.4,79.81,8.62,9.69,18.2,18.53,25.68,29.23,3,5,1.75,9.57-1.4,13.91-23,31.8-46.72,63.06-70,94.64A3.58,3.58,0,0,1,1103,779.91Z"/><path class="cls-5" d="M764.16,562q72.69,46.37,145.36,92.77,91.9,59,183.56,118.33c2.68,1.73,4.7,4.48,7,6.75q-152.2,58.5-304.45,117c-3.68,1.41-7.63,2.09-11.45,3.11q-10.1-164-20.17-328C763.84,568.6,764.11,565.26,764.16,562Z"/><path class="cls-3" d="M73,836.18q67.62-95.74,135.26-191.48,70.34-99.37,140.85-198.61c2.09-2.94,4.44-5.69,9.63-12.3-4.13,30-7.6,55.62-11.22,81.26q-21.94,155.78-44,311.55c-.32,2.3-1,4.54-1.57,6.81-1.92,3.31-5.27,3.77-8.59,4.24a38.4,38.4,0,0,1-6,.29c-65.2-1-130.35,3.51-195.55,2-6.29-.15-12.75.63-18.17-3.74Z"/><path class="cls-11" d="M658.36,537.26l-300-105.09L583.84,215.89a3.89,3.89,0,0,1,4.77,0c1.93,2,2.41,4.67,3,7.28,22,99.1,45.32,197.92,67.47,297C660.34,525.8,663,531.74,658.36,537.26Z"/><path class="cls-6" d="M658.36,537.26q-17.45-79.08-34.88-158.15-18-81.51-36-163a4.64,4.64,0,0,1,2.53-1.76c5.45-.7,10.58.79,15.61,2.56q114.54,40.25,229.12,80.32a19.82,19.82,0,0,1,6.24,3.1,3.36,3.36,0,0,1,1.25,2.78c-.79,1.12-1.59,2.24-2.38,3.37a4.65,4.65,0,0,0-1.55,1.6l-.19.91c-8.05,18.3-22.3,32.23-34.2,47.73-44.44,57.88-89.5,115.27-134,173.09-2.43,3.15-4.43,6.74-8.6,8Z"/><path class="cls-7" d="M73.68,836.23,302,833.41q92.73,83.48,185.48,166.93c43.39,39,87,77.67,130.42,116.6,4.43,4,8.18,8.68,12.25,13-22.38-10.83-45.07-21.06-67.07-32.6-48.92-25.63-97.41-52.07-146.22-77.9q-161.92-85.68-324-171c-4.54-2.39-10-3-15-4.48Z"/><path class="cls-10" d="M661.26,537.8c34.6-45.27,69-90.64,103.84-135.76,24.08-31.21,48.63-62.06,73-93.07-8.43,29.92-16.44,60-25.37,89.74-16.2,54-33,107.84-49.47,161.75Z"/><path class="cls-8" d="M590.28,215.63l-2.83.46-3.61-.2c.27-1.24.55-2.47.83-3.71l5.06-.45.36.39A2.46,2.46,0,0,1,590.28,215.63Z"/><path class="cls-3" d="M4514.05,499.93l-3.64,4.16Z"/><path class="cls-4" d="M2984.89,1063l-8.51-1.24-8.84-1.12c13.07-45.34,26-90.72,39.23-136q37.58-128.28,75.48-256.45a3.76,3.76,0,0,1,4.33-.9c4.63,2.92,5.87,8,7.56,12.59,35.72,97.58,71.87,195,107.64,292.58,4.68,12.76,11.14,25,13,38.71.3,5.37-2.27,9.64-5.46,13.54-10.11,12.33-20.53,24.39-31.1,36.32-3.81,4.3-8.33,7.66-14.42,8.1-23.94,2.59-47.72-1.11-71.58-1.57C3056.38,1066.89,3020.72,1063.1,2984.89,1063Z"/><path class="cls-1" d="M3260.39,448.62l3.4-1.05a3.74,3.74,0,0,1,1.29,3.88c-31.94,38.35-64.14,76.48-96.2,114.74q-34.32,40.95-68.73,81.84c-4.47,5.34-8.7,11-15.06,14.36a2.24,2.24,0,0,1-2.48-.86q-146.9-101-293.75-202.14c-3.42-2.36-6.13-5.73-9.18-8.62l4.45-.5c66.16-4.73,132.44-.48,198.62-2.3,75.62-2.08,151.24-1.81,226.86-1.86C3226.58,446.1,3243.59,445.26,3260.39,448.62Z"/><path class="cls-12" d="M3082.61,661.53a1.49,1.49,0,0,1,1.31.17c2.93-.41,3.28,1.58,3.48,3.72a4.09,4.09,0,0,1-1.47,2.58l-3.68.21Z"/><path class="cls-1" d="M2744.06,910.11l-6.15-4.13Z"/><path class="cls-1" d="M2738.06,906.11q-1.86-2-3.7-4Q2736.21,904.1,2738.06,906.11Z"/><path class="cls-4" d="M4246.89,378.19q-73.4,57-146.79,114Q4081,507,4062,521.92a3.93,3.93,0,0,1-4.95,2.71c-17.2-9.67-36.08-15.35-54.35-22.41-99-38.25-197.79-77-296.88-115-6.74-2.59-14.12-4.13-19.53-9.57a3.2,3.2,0,0,1-.43-2.95Q3772.89,266.19,3860,157.62Z"/><path class="cls-2" d="M3260.39,448.62c-25.47.58-50.94,1.53-76.42,1.68q-193.11,1.08-386.21,1.75c-4.54,0-9.09-1.16-13.63-1.78l257.54-98.1Z"/><path class="cls-13" d="M3685.81,374.74l0,.63c.07,3.5-2.17,5.46-4.78,7.18-50.73,33.62-101.83,66.67-152.36,100.6-29,19.47-58,38.91-87.24,58-5.14,3.37-11.35,9.23-16.15-.94-.76-19.38,2.24-38.52,3.78-57.72,2.92-36.5,5.87-73,9.19-109.47,5.48-60,9.59-120.13,15.49-180.1.88-8.94,1.65-17.93,2.08-26.88.46-9.48,2-18.44,6.08-27,21.93,22.55,44.15,44.82,65.7,67.73,34.11,36.25,67.63,73.06,101.68,109.37C3647.81,336,3666.94,355.25,3685.81,374.74Z"/><path class="cls-2" d="M3461.88,139.11q-13.74,160.21-27.44,320.44c-2.41,28.43-4.24,56.92-6.33,85.38,8.54,12.43,13,26.82,19,40.41,16.67,37.35,32.7,75,49.11,112.45,2.1,4.8,5,9.57,2.91,15.21-5,4.81-7.74.3-10.5-2.7-14.63-15.89-28.64-32.33-43-48.51q-41-46.27-81.67-92.76c-31.93-36.5-64.41-72.53-95.8-109.52-2.1-2.48-4.89-4.69-4.37-8.54l-.06-3.4s-.34-.36-.34-.35l96.75-150.4L3461.71,139Z"/><path class="cls-3" d="M2095.79,40.47c40,3.36,80.11,6.46,120.13,10.11,68.18,6.23,136.3,13.11,204.51,19,14.87,1.27,19.35,3.21,11.54,19.22-59.8,122.62-118.64,245.7-177.84,368.61-1.54,3.2-3.89,6-5.86,9a2.89,2.89,0,0,1-3,0c-8.1-10.58-10.29-23.69-14.58-35.76Q2164.8,245.39,2098.54,60.3C2096.32,54.08,2091.5,47.78,2095.79,40.47Z"/><path class="cls-5" d="M2095.79,40.47q38.7,109.85,77.44,219.69,36.38,102.76,73.09,205.42a2.29,2.29,0,0,1,0,2.87c-5.07,3.38-9.69.39-14.19-1.32-52.59-19.94-105.06-40.22-157.59-60.31-41.65-15.94-83.23-32.06-124.89-48-5.89-2.25-12-4.08-17.39-7.46-4-5.15-.41-9.57,1.7-13.85,16.34-33.18,34.25-65.55,51.42-98.3,15.32-29.21,30.81-58.33,46.24-87.48,18.55-35,36.94-70.16,55.52-105.17a11.66,11.66,0,0,1,1.16-2.66,12.68,12.68,0,0,1,5.72-4.18A4.89,4.89,0,0,1,2095.79,40.47Z"/><path class="cls-14" d="M2386.08,660.74l-.87-.09-.87.13a3.07,3.07,0,0,1-1-1.23c-4-1.49-6.23-4.75-8.58-8-39.63-55-78.94-110.2-118.51-165.24-3.27-4.55-8.79-8.64-6.53-15.7,39.35-5.28,78.67-10.79,118-15.8q115.8-14.74,231.66-29c5.58-.69,11.22-.88,16.84-1.3-8.59,10-16.59,20.62-25.87,29.95q-98.23,98.76-196.86,197.12C2390.75,654.34,2388.55,657.67,2386.08,660.74Z"/><path class="cls-10" d="M2249.69,470.6q63.93,89.86,127.84,179.75c2.09,2.95,3.86,6.13,5.78,9.2-33,2.77-65.93,5.79-98.93,8.26-58.79,4.41-117.61,8.49-176.41,12.7-3.63-.15-3.32-2.69-2.74-5,.75-2.95,2.88-5.21,4.55-7.69,41.29-61.29,83.24-122.14,124.93-183.16,3.75-5.48,6.43-11.69,11.26-16.43.12-.89.23-1.78.35-2.68l1.95.8C2248.74,467.79,2249.21,469.2,2249.69,470.6Z"/><path class="cls-1" d="M2094,39.73l-4,4.46a3.54,3.54,0,0,1,0-4.91l2-1.37Z"/><path class="cls-8" d="M2443.14,68H2448l-6.16,2.81C2442.29,69.91,2442.72,69,2443.14,68Z"/><path class="cls-3" d="M842.2,303.09l-.08-.09c1.6-6.19,7.5-7.16,12-9.34q102.08-49.19,203.83-99c14-6.88,27.93-14.06,43-18.39l5.11-1.15a.77.77,0,0,1,0,1c3.62,3.8,4.87,8.49,5.63,13.56,23,154.06,44.77,308.3,67.33,462.43.93,6.39,4.84,13.81-2.48,19.42q-64.85-71.52-129.7-143-41.46-45.69-83-91.27Q903,370.16,842.2,303.09Z"/><path class="cls-11" d="M1101,176.25q-81,39.85-162,79.69c-32.25,15.81-64.61,31.38-96.93,47.06q-120.18-42.06-240.38-84.08c-3.75-1.31-7.64-2.2-11.46-3.28-.06-1.18-.13-2.35-.19-3.52q109.6-7.91,219.21-15.81c45.29-3.29,90.57-6.82,135.88-9.93C997.12,182.82,1049.08,179.61,1101,176.25Z"/><path class="cls-5" d="M1176.63,671.48c-3.07-26.28-5.52-52.65-9.31-78.82q-29.19-201.45-59-402.81c-.68-4.6-1.48-9.19-2.22-13.78l6.71,2.23c5.69,2.11,10.56,5.57,15.35,9.18q160.27,120.86,320.6,241.63,45.46,34.25,91,68.46c3,2.22,7,7.55,9.1-1,1.94-35.22,4.4-70.37,6.69-105.53,1.62-24.88,3.08-49.77,4.7-74.66q3.63-55.72,7.27-111.46c1.65-25.54,3.06-51.11,4.93-76.63,1.37-18.78-.47-38,6.67-56.17l1.62-5.55s.07-.5.07-.5l2.86,1.17c12.61,10,21.82,23.19,33.09,34.43,39.53,39.41,77.3,80.51,116.06,120.67,19.81,20.54,40.28,40.51,59.17,61.94a8.52,8.52,0,0,1,2,3.71,7.43,7.43,0,0,1,0,2.78c-.09.46-.19.91-.29,1.37,7.47,26.76,14.44,53.66,22.49,80.25,30.69,101.4,61.76,202.69,92.53,304.07.86,2.83-.06,6.19-.15,9.31-8.59-1.61-16.37-5.27-24.17-9.08q-114-55.59-227.78-111.7c-30.2-14.81-60.4-29.61-90.42-44.76-5.09-2.57-11.72-2.25-15.31-7.73-35.79,15.18-71.75,30-107.34,45.6q-126.68,55.65-252.9,112.33c-2.33,1-4.29,10-2.64,11.8,46,50.72,92.43,101,138.65,151.44,3.18,3.46,5.06,8.11,7.54,12.2-4.86,4.75-10.1,1.81-15,.39-54.36-15.87-108.75-31.62-163-47.74-13.74-4.07-27.58-7.77-41.21-12.19-4.18-1.35-8.23-2.71-11.12-6.25l-.79-.19c22.93-31.58,46-63.08,68.64-94.85C1174.36,681.28,1175,676,1176.63,671.48Z"/><path class="cls-3" d="M1550,503.13c-2.45.13-5.74,1.38-7.25.24q-214.28-161.08-428.28-322.56c-.73-.55-1-1.66-1.56-2.51,31.76,9.59,63.63,18.84,95.26,28.84,78.31,24.75,156.51,49.86,234.78,74.73,3.75,1.2,7.78,1.56,11.68,2.3a13.12,13.12,0,0,1,1.53.11c5.49,1.79,7.05,6.85,8.94,11.34,27.62,65.58,54.89,131.3,82.49,196.89A29.88,29.88,0,0,1,1550,503.13Z"/><path class="cls-8" d="M1550,503.13q-29.6-69.15-59.2-138.29-17.26-40.3-34.64-80.56c13.42-22.35,27.32-44.44,40.17-67.11,26.19-46.18,51.79-92.69,77.73-139,1.26-2.25,3.39-4,5.12-6-2.5,44.43-4.78,88.87-7.55,133.27-3.62,58-7.63,116-11.48,174q-3.9,58.67-7.9,117.34C1552.05,498.94,1550.73,501,1550,503.13Z"/><path class="cls-8" d="M2449.88,67.7l4.06-1.78Z"/><path class="cls-2" d="M4819.89,290l-.12,2.44-1.26-.43L4820,290Z"/><path class="cls-2" d="M1790.89,286.17q-49.16-50.54-98.29-101.09c-27.42-28.38-54.78-56.82-81.8-85.58-9.6-10.22-18.11-21.46-27.12-32.24q63.66-3.7,127.33-7.41,119.84-6.83,239.7-13.5c46.45-2.54,92.91-4.72,139.37-7.07,0,1.64,0,3.27,0,4.91l.12-.16c-5,6.79-11.7,11.77-18.18,17q-136.08,109.84-271.78,220.19C1797.44,283.43,1795.23,286.84,1790.89,286.17Z"/><path class="cls-9" d="M4057.75,523.45l4.2-1.53,429.73-10.39.51,2.17c-28.84,9.07-57.63,18.29-86.52,27.2Q4252.35,588.18,4099,635.32c-13.22,4.08-26.3,8.64-39.45,13l-545.79,74.19a1.56,1.56,0,0,1-2.19-1.42c2.07-5,7-6,11.22-7.51,72.46-25.91,144.72-52.38,217.08-78.55q144.27-52.17,288.51-104.39C4037.77,527.2,4046.69,520.54,4057.75,523.45Z"/><path class="cls-8" d="M3511.81,721.89l1.93.59L3507.9,732c-.56,0-1.12,0-1.68,0l-3.09-8.53c-1.32.89-2-.07-2.71-.92a14.72,14.72,0,0,1-1.06-1.95,19.61,19.61,0,0,1-.84-2,14.31,14.31,0,0,1-.93-3.07c0-.36,0-.71,0-1.07-10.77-26.61-21.43-53.25-32.32-79.8-12.29-30-24.79-59.83-37.19-89.73,34.15-22.15,68.38-44.19,102.44-66.48q75.78-49.6,151.37-99.47c2.11,5.79-1.36,10.33-3.62,15-13.61,28.21-28.54,55.75-43,83.53-22.45,43.13-44.57,86.45-67.22,129.48-17.69,33.6-34.74,67.54-52.55,101.07C3513.29,712.28,3509.67,716.39,3511.81,721.89Z"/><path class="cls-1" d="M1790.89,286.17q79-64.59,158-129.15Q2016,102.32,2083.36,47.9c2-1.62,4.51-2.59,6.79-3.87-14,27.7-27.67,55.56-42.07,83-37.15,70.89-74.64,141.6-111.89,212.43-1.5,2.84-2,6.18-3,9.29,14.74,19.31,23.69,41.88,34.8,63.15,28.31,54.21,56.91,108.28,84.9,162.66,13.84,26.89,28,53.64,42,80.44,2.1,4,5.06,8,3.56,13.08a1.51,1.51,0,0,1-2.51,0c-28.52-35.21-57.19-70.29-85.52-105.65Q1917,445.78,1823.81,328.94c-9.9-12.38-20.09-24.53-30.14-36.78l.2.09c-.55-1-1.4-1.82-1.91-2.85C1791.61,288.32,1791.25,287.25,1790.89,286.17Z"/><path class="cls-12" d="M2098,668Q2017,513,1936.15,358c-1.47-2.82-2-6.12-3-9.21q154.44,59.52,308.88,119a15.87,15.87,0,0,0,3.94.47c-1.28,3.57-1.88,7.6-3.94,10.64q-66.48,97.9-133.17,195.68c-1,1.49-.63,3.93-.89,5.93-.25,1.35-.5,2.7-.76,4l-3.31-4.29-1.74-4c-1.65-1.94-2.14-4.65-4.17-6.34l.09.12c-.57-.42-.78-.86-.62-1.31S2097.79,668,2098,668Z"/><path class="cls-4" d="M1103.81,780.1q108.89,31.78,217.78,63.52c4.07,1.18,8.38,1.54,12.58,2.27l-.21,0c.67.84,1.37,1.61,2.6,1.25.57,7.56,2.42,15.27,1.52,22.66q-18.25,150.64-37.18,301.22c-7.06-12.14-14.8-23.94-21.09-36.47Q1193,961.68,1106.6,788.52C1105.3,785.9,1104.73,782.91,1103.81,780.1Z"/><path class="cls-4" d="M1550.86,512.52c16.12,7.13,32.51,13.74,48.34,21.49Q1754,609.69,1908.54,685.79q-84.81,2.22-169.61,4.43-118.73,3-237.46,5.9c-3.27-4-1.61-8.24-.5-12.36,13.34-49.82,27.11-99.52,40.55-149.32,1.74-6.43,4.74-12.37,7.91-18.21C1549.91,515,1550.38,513.76,1550.86,512.52Z"/><path class="cls-8" d="M1569.39,944.09l-3.27-.22q-19.62-75.14-39.26-150.27c-7.81-29.76-15.79-59.48-25.59-96.32,23.13,26,41.58,46.46,59.79,67.17q55.15,62.76,110.08,125.74c24.37,28,48.5,56.16,72.74,84.25l-9.92-.18a28.93,28.93,0,0,1-4.41-1.17l-7.59-.93a19.6,19.6,0,0,1-4.4-1.12l-17.6-2.88a21.66,21.66,0,0,1-4.41-1.07l-17.6-2.83a30.34,30.34,0,0,1-4.4-1.17l-7.59-.92a20.18,20.18,0,0,1-4.4-1.13l-5.61-.78a29.11,29.11,0,0,1-4.4-1.17l-7.59-.93a21,21,0,0,1-4.41-1.07L1622,954.27a30.17,30.17,0,0,1-4.41-1.18l-7.59-.92a21.59,21.59,0,0,1-4.41-1.11l-5.59-.79a30.17,30.17,0,0,1-4.41-1.18l-7.59-.94a20.83,20.83,0,0,1-4.41-1l-5.6-.76C1575,945.81,1571.81,946.47,1569.39,944.09Z"/><path class="cls-3" d="M1549.43,516.23q-22.82,84.62-45.61,169.23c-1,3.51-1.57,7.1-2.35,10.66L1347.06,843l-1.7-1.15c15.57-25.26,31-50.57,46.72-75.76q75.15-120.8,150.48-241.47C1544.46,521.57,1547.12,519,1549.43,516.23Z"/><path class="cls-15" d="M1750.1,975.81a2.52,2.52,0,0,1-.68,1.66l-5.72-2.19,6.06-3.36C1749.87,973.22,1750,974.52,1750.1,975.81Z"/><path class="cls-9" d="M2098,669.93l4.17,6.34Z"/><path class="cls-9" d="M2098,668c0,.68.07,1.35.11,2l-2.19-2Z"/><path class="cls-5" d="M1336.56,847.17l-2.59-1.25Z"/><path class="cls-15" d="M1701.37,1236.6l-8.73-18.81Z"/><path class="cls-15" d="M1603.37,1022.6q-4.36-9.4-8.72-18.81Z"/><path class="cls-15" d="M1635.38,1092.6q-3.37-7.41-6.73-14.81Q1632,1085.19,1635.38,1092.6Z"/><path class="cls-15" d="M1667.37,1162.6l-6.72-14.81Z"/><path class="cls-15" d="M1645.37,1114.6q-3.36-7.41-6.71-14.82Z"/><path class="cls-15" d="M1623.37,1066.6l-6.72-14.81Z"/><path class="cls-15" d="M1679.37,1188.6l-6.72-12.93Z"/><path class="cls-15" d="M1569.39,944.09l8.56,2.25-8,3.74C1569.76,948.08,1569.57,946.09,1569.39,944.09Z"/><path class="cls-15" d="M1581.36,974.61l-4.72-8.93Z"/><path class="cls-15" d="M1711.38,1258.6l-4.74-8.92Z"/><path class="cls-15" d="M1721.37,1280.6l-4.72-8.93Z"/><path class="cls-15" d="M1689.38,1210.6l-4.74-8.92Z"/><path class="cls-15" d="M1657.38,1140.59q-2.36-4.46-4.72-8.92Z"/><path class="cls-15" d="M1613.37,1044.6l-4.73-8.92Z"/><path class="cls-15" d="M1591.38,996.6l-4.74-8.92Z"/><path class="cls-15" d="M1605.55,951.06l4.41,1.11Z"/><path class="cls-15" d="M1617.55,953.09l4.41,1.18Z"/><path class="cls-15" d="M1639.55,957.09l4.41,1.07Z"/><path class="cls-15" d="M1651.55,959.09l4.4,1.17Z"/><path class="cls-15" d="M1595.55,949.09l4.41,1.18Z"/><path class="cls-15" d="M1673.55,963.09l4.4,1.17Z"/><path class="cls-15" d="M1695.55,967.09l4.41,1.07Z"/><path class="cls-15" d="M1729.55,973.09l4.41,1.17Z"/><path class="cls-15" d="M1661.56,961l4.4,1.13Z"/><path class="cls-15" d="M1717.56,971l4.4,1.12Z"/><path class="cls-15" d="M1583.55,947.1l4.41,1Z"/><path class="cls-5" d="M3502.07,719.77l1,3.69L3380.26,830l-28.48,24.67c-.87,1.2-1.86,2.22-3.51,2.14-10.93-3.87-19-12.15-28.08-18.74-74.38-54-148.47-108.35-222.79-162.41-4-2.88-8.62-5.24-10.39-10.39l-3.09-3.59q80.19-94.94,160.43-189.8c6.16-7.27,13-14,19.5-20.94q63.41,71.88,126.83,143.76c35.5,40,71.28,79.82,106.94,119.72l.05-.31c1.52.69,1,2.93,2.61,3.53l.13.16A3.6,3.6,0,0,0,3502.07,719.77Z"/><path class="cls-12" d="M3349.32,855.75l2.47-1c13.34,15.41,26.08,31.41,40.15,46.14,54.24,56.76,108.94,113.1,163.32,169.74,2.31,2.39,3.16,6.19,4.69,9.33l-26,1.14-68.14-.67c-15.27-1.09-30.6.46-45.87-.85l-78.13-1.15c-15.94-1.11-31.93.5-47.87-.87l-78.13-1.12c-11.94-1.08-23.93.43-35.87-.86l-13.93-.48-2.42-.84c-1.16-3.63,1.31-5.45,3.67-7.32l45.27-55.26q63.77-73.57,126.79-147.79C3342.14,860.54,3345.16,857.42,3349.32,855.75Z"/><path class="cls-10" d="M3294,1077.51l47.87.87Z"/><path class="cls-10" d="M3420,1079.53l45.87.85Z"/><path class="cls-10" d="M3180,1075.53l35.87.86Z"/><path class="cls-6" d="M3167.27,1066.89q-1.83,3.66-3.67,7.32-66.46-4-132.93-8.06c-15.54-1-31.08-2.11-46.6-3.17l.8,0Z"/><path class="cls-10" d="M838.27,308.06c.51-.54,1-1.07,1.55-1.61C839.3,307,838.78,307.52,838.27,308.06Z"/><path class="cls-13" d="M3349.32,855.75Q3304.65,908.37,3260,961q-20,23.44-40.46,46.49c-1.71,1.93-4.62,2.8-7,4.16q-43.2-117.72-86.41-235.42c-13.28-36.11-26.79-72.14-40.2-108.21l1.08-2.7q93.34,67.74,186.7,135.48Q3311.54,828.23,3349.32,855.75Z"/><path class="cls-5" d="M3511.81,721.89c-.73-2.8-2.95-6.37-2-8.29Q3584,569.87,3658.5,426.38c8.1-15.65,15.62-31.59,23.42-47.41l3.87-3.6c43.46,17.16,86.86,34.48,130.4,51.44q116.89,45.51,233.88,90.8c2.88,1.12,5.13,3.86,7.68,5.84q-157.22,56.87-314.42,113.76Q3627.47,679.3,3511.81,721.89Z"/><path class="cls-2" d="M1792,289.4l1.91,2.85Z"/><path class="cls-2" d="M3500.28,717.67l-2.61-3.53Z"/><path class="cls-2" d="M3502.07,719.77l-1.66-1.94Z"/></g></g></svg>