<svg xmlns="http://www.w3.org/2000/svg" viewBox="0 0 1182.24 1066.97"><defs><style>.cls-1{fill:#60bb92;stroke:#60bb92;}.cls-1,.cls-2,.cls-3,.cls-4,.cls-5,.cls-6,.cls-7{stroke-miterlimit:10;}.cls-2{fill:#5978bb;stroke:#5978bb;}.cls-3{fill:#fec366;stroke:#fec366;}.cls-4{fill:#dd5445;stroke:#dd5445;}.cls-5{fill:#e54880;stroke:#e54880;}.cls-6{fill:#ae71b0;stroke:#ae71b0;}.cls-7{fill:#ec7b42;stroke:#ec7b42;}</style></defs><title>Triangles</title><g id="Layer_2" data-name="Layer 2"><g id="Layer_1-2" data-name="Layer 1"><path class="cls-1" d="M498.55,1c-1,5-452,451-452,451L.55,20Z"/><polygon class="cls-2" points="230.41 269.83 606.55 451.99 498.55 0.99 230.41 269.83"/><polygon class="cls-3" points="560.07 257.86 803.55 0.99 498.55 0.99 560.07 257.86"/><polygon class="cls-4" points="230.41 269.83 335.55 601.99 606.55 451.99 230.41 269.83"/><polygon class="cls-5" points="656.52 156.11 739.55 379.99 1113.55 215.99 656.52 156.11"/><polygon class="cls-6" points="803.55 0.99 1113.55 215.99 656.52 156.11 803.55 0.99"/><polygon class="cls-2" points="855.92 328.96 1173.55 486.99 1113.55 215.99 855.92 328.96"/><polygon class="cls-7" points="803.55 0.99 1181.55 0.99 1113.55 215.99 803.55 0.99"/><path class="cls-3" d="M895.55,405c-4,4-162,204-162,204l259,266Z"/><polygon class="cls-5" points="183.55 470.99 293.55 619.99 90.55 684.99 183.55 470.99"/><path class="cls-4" d="M336.55,812l-121,145s209,44,208,39S336.55,812,336.55,812Z"/><polygon class="cls-2" points="630.55 629.99 477.55 608.99 516.55 780.99 630.55 629.99"/><polygon class="cls-6" points="630.55 629.99 728.55 874.99 516.55 780.99 630.55 629.99"/><polygon class="cls-1" points="1100.55 904.18 998.55 988.99 1119.55 1065.99 1100.55 904.18"/><polygon class="cls-4" points="560.07 257.86 651.05 404.99 656.52 156.11 560.07 257.86"/></g></g></svg>